<svg width="174" height="69" viewBox="0 0 174 69" fill="none" xmlns="http://www.w3.org/2000/svg">
<path fill-rule="evenodd" clip-rule="evenodd" d="M19.0473 0.287827C16.3841 1.27658 15.4438 3.13441 15.4438 7.40739C15.4438 11.5924 16.0303 13.0723 19.5621 17.7984C21.2036 19.9949 22.7247 22.1311 22.9419 22.5452C23.4718 23.555 23.4591 28.6016 22.9254 29.1378C22.3959 29.67 21.1899 29.67 20.6604 29.1378C20.3909 28.8671 20.2485 27.4366 20.2485 24.9994V21.2747H17.6416H15.0347L15.1534 26.0785C15.2574 30.2804 15.3607 31.0012 15.9799 31.8337C17.355 33.6833 18.3891 34.1868 21.0952 34.324C24.1997 34.4817 25.7369 34.0047 27.0809 32.4666C28.5109 30.8298 28.9252 28.963 28.7598 24.898C28.5916 20.7567 28.2196 19.909 24.3682 14.8946C20.9507 10.445 20.5917 9.70804 20.5917 7.14459C20.5917 5.25262 20.6734 5.01362 21.4394 4.66289C22.9429 3.97452 23.3373 4.71186 23.3373 8.21163V11.2734H25.9483H28.5593L28.4248 7.39359C28.2179 1.4166 27.2833 0.201264 22.7514 0.0153771C21.2805 -0.0449756 19.6136 0.0777988 19.0473 0.287827ZM0 17.1363V34.035H2.57396H5.14793V26.6203V19.2055H6.86391H8.57988V26.6203V34.035H11.1538H13.7278V17.1363V0.237475H11.1538H8.57988V6.9625V13.6875H6.86391H5.14793V6.9625V0.237475H2.57396H0V17.1363ZM30.5444 17.1363V34.035H36.3787H42.213V31.4485V28.8619H38.7811H35.3491V24.0337V19.2055H37.9231H40.497V16.6189V14.0324H37.9128H35.3285L35.4246 9.63527L35.5207 5.23814L38.6953 5.13881L41.8698 5.03983V2.63848V0.237475H36.2071H30.5444V17.1363ZM51.1361 0.574761C51.1361 1.10966 47.3997 32.0337 47.2079 33.0866L47.0349 34.035H49.403H51.771L52.0126 30.9312L52.2542 27.8273H54.1082C55.2898 27.8273 56.0119 27.9836 56.0994 28.2584C56.1745 28.4957 56.3372 29.8921 56.4611 31.3623L56.6859 34.035H59.2369C61.7051 34.035 61.7827 34.0099 61.6149 33.2591C61.5195 32.8325 61.0462 29.3793 60.5626 25.5856C60.0794 21.792 59.1511 14.5756 58.4997 9.54905C57.848 4.52252 57.3146 0.370941 57.3143 0.323693C57.314 0.276446 55.9237 0.237475 54.2249 0.237475C52.4416 0.237475 51.1361 0.379908 51.1361 0.574761ZM62.4615 17.1363V34.035H65.0355H67.6095V26.6096C67.6095 18.5026 67.6201 18.4626 69.5715 19.1148L70.5266 19.4338L70.7295 26.6482C70.841 30.6163 70.9567 33.9012 70.9869 33.9488C71.0167 33.9964 72.2824 34.035 73.799 34.035C76.4189 34.035 76.5391 34.0016 76.2014 33.3681C75.9879 32.967 75.8462 29.7224 75.8462 25.237V17.7729L74.854 16.7759C74.0059 15.9237 73.9346 15.7181 74.3618 15.3619C75.586 14.3407 75.8462 13.0978 75.8448 8.27302C75.8427 0.82307 75.2184 0.237475 67.2773 0.237475H62.4615V17.1363ZM76.8757 2.65159V5.0657H78.9349H80.9941V19.5504V34.035H83.568H86.142V19.5504V5.0657H88.3728H90.6035V2.65159V0.237475H83.7396H76.8757V2.65159ZM99.3873 0.655117C99.3169 0.899632 99.0135 3.19476 98.7129 5.75545C97.243 18.2874 96.0398 28.225 95.7402 30.3077C95.178 34.2158 95.0881 34.035 97.5999 34.035H99.7919L100.002 32.4831C100.118 31.6296 100.308 30.2328 100.424 29.3793L100.634 27.8273H102.448H104.262L104.493 30.3277C104.851 34.2078 104.714 34.035 107.443 34.035C109.125 34.035 109.818 33.9088 109.808 33.6039C109.8 33.367 108.829 25.8012 107.65 16.7914L105.508 0.409912L102.511 0.310244C100.293 0.236441 99.482 0.325763 99.3873 0.655117ZM110.852 17.1363V34.035H113.083H115.314L115.339 24.6372L115.364 15.2395L117.047 21.792C117.973 25.396 119.065 29.6251 119.473 31.1898L120.216 34.035H122.226H124.237V17.1363V0.237475H122.006H119.775L119.748 9.11796C119.732 14.3807 119.604 17.6474 119.434 17.1363C119.276 16.6621 118.427 13.2478 117.549 9.54905C116.67 5.85029 115.802 2.24222 115.619 1.53075L115.287 0.237475H113.069H110.852V17.1363ZM126.296 17.1114V34.035H131.221C135.771 34.035 136.236 33.9754 137.313 33.2522C139.663 31.6751 139.679 31.5602 139.679 17.1363C139.679 2.89817 139.653 2.70504 137.512 1.12414C136.655 0.491301 135.96 0.397151 131.42 0.298862L126.296 0.187814V17.1114ZM70.0345 5.07777C70.6303 5.3985 70.6982 5.83166 70.6982 9.31971C70.6982 13.6206 70.5273 14.0324 68.742 14.0324H67.6095V9.37661V4.72083H68.4901C68.9744 4.72083 69.6693 4.88154 70.0345 5.07777ZM133.77 5.25779C134.531 5.79338 134.533 5.8158 134.533 16.87C134.533 29.0713 134.509 29.2068 132.42 29.2068H131.444V16.9638V4.72083H132.225C132.655 4.72083 133.35 4.96258 133.77 5.25779ZM103.625 21.8783C103.642 22.5501 103.47 22.6542 102.344 22.6542H101.044L101.642 17.2225C101.972 14.2352 102.264 11.5579 102.293 11.2734C102.349 10.7099 103.594 20.6133 103.625 21.8783ZM54.8831 16.7914C55.112 19.1624 55.3828 21.4517 55.4854 21.8783C55.6567 22.5901 55.552 22.6542 54.2238 22.6542C52.7797 22.6542 52.7762 22.6511 52.9667 21.5334C53.0717 20.9171 53.3473 18.333 53.579 15.7916C53.8116 13.2385 54.1047 11.4638 54.2338 11.8256C54.3621 12.1856 54.6545 14.4204 54.8831 16.7914ZM32.142 34.8617C29.1146 35.995 28.3483 37.681 28.5449 42.7769C28.7073 46.9974 29.1208 47.96 32.7947 52.6716C36.0307 56.8218 36.3787 57.573 36.3787 60.4065C36.3787 63.0682 35.9809 64.039 34.8909 64.039C33.502 64.039 33.2899 63.4355 33.2899 59.4867V55.762H30.716H28.142V60.1723C28.142 64.0676 28.2323 64.7594 28.9142 66.0958C30.0032 68.2299 31.3711 68.8672 34.8642 68.8672C37.1934 68.8672 37.8397 68.7386 38.8078 68.083C41.3056 66.3917 42.1221 63.8173 41.7933 58.67C41.5915 55.5082 40.866 54.0263 37.0737 49.0274C35.5324 46.9957 34.1277 44.9541 33.9523 44.4902C33.7766 44.026 33.6331 42.731 33.6331 41.6119C33.6331 39.9303 33.7522 39.5134 34.3195 39.2081C34.8072 38.946 35.2046 38.946 35.6923 39.2081C36.3004 39.5351 36.3787 39.9303 36.3787 42.6689V45.7607H38.9959H41.6131L41.459 41.8809C41.284 37.4686 40.7908 36.1081 39.0354 35.1959C37.5353 34.4165 33.814 34.2361 32.142 34.8617ZM54.136 34.8517C52.4389 35.488 51.9213 35.9508 51.0252 37.6331C50.296 39.0022 50.2781 39.3447 50.2781 51.9684C50.2781 64.3759 50.3069 64.9564 50.9882 66.261C52.0085 68.2161 53.2076 69 55.1776 69C56.9787 69 58.603 68.0709 59.392 66.5897C60.0142 65.4213 60.3076 65.5585 60.574 67.1429C60.8036 68.5086 60.8211 68.5224 62.3201 68.5224H63.8343V58.3486V48.1748H60.2308H56.6272V50.7614V53.3479H57.8284H59.0296V58.0037C59.0296 62.1998 58.9616 62.7278 58.3432 63.3493C57.491 64.2056 56.898 64.2218 56.1656 63.4082C55.6615 62.8485 55.5983 61.5214 55.6028 51.5963C55.6059 45.4469 55.7215 40.2486 55.8602 40.0451C56.3801 39.2823 57.3263 39.2209 58.0079 39.9058C58.5546 40.4552 58.6864 41.0567 58.6864 43.0017V45.4159H61.0888H63.4911V42.0761C63.4911 38.1894 62.8212 36.3253 61.0452 35.2711C59.6223 34.4265 55.8763 34.1992 54.136 34.8517ZM89.4556 34.8617C86.4241 35.9963 85.6588 37.6838 85.8654 42.7769C86.0363 46.984 86.3967 47.8048 90.3033 52.8813C91.7841 54.8057 93.1525 56.7946 93.344 57.3009C93.833 58.5928 93.7874 63.1158 93.2805 63.6252C92.7509 64.1573 91.5449 64.1573 91.0154 63.6252C90.746 63.3544 90.6035 61.9239 90.6035 59.4867V55.762H88.0296H85.4556V60.1723C85.4556 64.0676 85.5459 64.7594 86.2278 66.0958C87.2879 68.173 88.7074 68.8672 91.8964 68.8672C94.829 68.8672 96.2944 68.3409 97.556 66.8342C98.7819 65.3702 99.1793 63.7541 99.1814 60.2206C99.1841 56.0893 98.5993 54.6698 94.8077 49.6033C93.02 47.2144 91.4197 44.8968 91.2518 44.453C91.084 44.0095 90.9467 42.731 90.9467 41.6119C90.9467 39.9303 91.0658 39.5134 91.6331 39.2081C92.1208 38.946 92.5182 38.946 93.0059 39.2081C93.6141 39.5351 93.6923 39.9303 93.6923 42.6689V45.7607H96.3033H98.9144L98.7771 41.8809C98.6213 37.4707 98.1315 36.1222 96.349 35.1959C94.8489 34.4165 91.1276 34.2361 89.4556 34.8617ZM104.439 34.7379C102.918 35.2111 101.328 36.9182 100.892 38.5467C100.653 39.4378 100.56 44.2916 100.626 52.4095C100.723 64.2897 100.762 64.9602 101.433 66.1072C102.667 68.2189 104.027 68.8672 107.219 68.8672C110.662 68.8672 112.044 68.2244 113.16 66.1038C113.874 64.747 113.941 64.1687 113.941 59.3291V54.0377H111.538H109.136V58.2717C109.136 61.5459 109.015 62.6799 108.602 63.2723C107.953 64.2032 107.036 64.2566 106.272 63.4082C105.768 62.8485 105.704 61.5111 105.704 51.518V40.2586L106.514 39.7254C108.35 38.5167 109.136 39.9196 109.136 44.4037V47.4851H111.538H113.941V43.1811C113.941 38.1152 113.474 36.5102 111.678 35.3949C110.333 34.5592 106.215 34.1854 104.439 34.7379ZM135.49 34.7206C133.897 35.2035 132.577 36.3812 131.915 37.9104C131.347 39.2237 131.267 40.5876 131.168 50.6897C131.048 63.0009 131.245 65.0636 132.711 66.8139C134.072 68.4386 135.219 68.8672 138.21 68.8672C141.534 68.8672 142.936 68.2071 144.142 66.0741L145 64.5563L145.103 52.5454C145.218 39.0512 145.045 37.6183 143.101 35.975C141.389 34.5275 137.982 33.9661 135.49 34.7206ZM150.888 34.8607C149.137 35.5176 148.051 36.5916 147.398 38.3118C146.94 39.5182 146.876 41.5453 146.96 52.1409C147.051 63.4641 147.116 64.6708 147.702 65.8565C148.792 68.0595 150.022 68.6775 153.58 68.8086C156.353 68.911 156.791 68.84 157.87 68.1161C158.53 67.6726 159.418 66.6187 159.843 65.7737C160.602 64.2645 160.615 64.0187 160.615 51.6594C160.615 39.6423 160.584 39.0154 159.905 37.6055C159.509 36.7847 158.679 35.8104 158.032 35.4087C156.505 34.4603 152.727 34.1702 150.888 34.8607ZM0 51.6236V68.5224L4.89053 68.521C10.5917 68.5196 11.5873 68.1564 12.7106 65.6699C13.3218 64.317 13.3695 63.2999 13.3695 51.6236C13.3695 39.8924 13.3242 38.935 12.7023 37.5583C11.6597 35.2504 10.1922 34.7417 4.54734 34.7324L0 34.7248V51.6236ZM15.3295 34.9548C15.2035 35.081 15.1006 42.6855 15.1006 51.8536V68.5224H21.1065H27.1124V65.9358V63.3493H23.6805H20.2485V58.521V53.6928H22.8225H25.3964V51.1063V48.5197H22.8122H20.2279L20.324 44.1226L20.4201 39.7254L23.5947 39.6261L26.7692 39.5271V37.1258V34.7248H21.1638C18.0806 34.7248 15.4551 34.8282 15.3295 34.9548ZM43.2426 51.6236V68.5224H45.8166H48.3905V51.6236V34.7248H45.8166H43.2426V51.6236ZM65.5503 51.6236V68.5224H67.9527H70.355L70.3869 59.297L70.4185 50.0716L72.7224 59.2108L75.0259 68.3499L77.152 68.4527L79.2781 68.5551V51.6401V34.7248H76.8757H74.4734L74.4421 43.2604L74.4109 51.796L73.6181 48.6921C73.1823 46.985 72.2443 43.1438 71.5339 40.1565L70.2421 34.7248H67.896H65.5503V51.6236ZM115.657 51.6236V68.5224H118.231H120.805V61.1076V53.6928H122.521H124.237V61.1076V68.5224H126.811H129.385V51.6236V34.7248H126.811H124.237V41.4498V48.1748H122.521H120.805V41.4498V34.7248H118.231H115.657V51.6236ZM162.675 51.6084V68.5224H168.337H174V65.9358V63.3493H170.915H167.83L167.74 49.1232L167.651 34.8972L165.163 34.7958L162.675 34.6944V51.6084ZM7.80769 40.141C8.12927 40.5745 8.23669 43.4021 8.23669 51.4404C8.23669 63.3186 8.17285 63.6941 6.15795 63.6941H5.14793V51.408V39.1219L6.26331 39.3419C6.87695 39.4633 7.57192 39.8227 7.80769 40.141ZM139.707 40.4849C139.881 40.9453 140.024 46.0887 140.024 51.9143C140.024 63.3917 139.924 64.039 138.159 64.039C136.494 64.039 136.428 63.6286 136.311 52.5196C136.197 41.7571 136.389 39.7217 137.542 39.473C138.582 39.2488 139.381 39.622 139.707 40.4849ZM154.705 39.7451C155.466 40.281 155.467 40.2986 155.467 51.4932C155.467 58.5621 155.336 62.9513 155.112 63.372C154.677 64.1897 153.507 64.2356 152.663 63.4682C152.08 62.9378 152.035 62.1112 152.035 51.7426C152.035 41.0473 152.064 40.5594 152.722 39.8979C153.548 39.0674 153.723 39.054 154.705 39.7451Z" fill="#BE153E"/>
</svg>
