<svg width="134" height="153" viewBox="0 0 134 153" fill="none" xmlns="http://www.w3.org/2000/svg">
<path d="M76.7652 35.5535C78.0647 31.805 79.365 28.0541 80.6644 24.3056C81.6639 21.4225 82.7139 18.5544 83.6556 15.6539C83.9548 14.7298 84.318 14.6167 85.1694 14.957C86.7214 15.5747 88.2986 16.1506 89.9066 16.5992C90.938 16.8877 90.9334 17.3376 90.627 18.2061C88.4082 24.5148 86.2335 30.8415 84.0455 37.161C83.9263 37.5047 83.808 37.8462 83.8463 38.2871C84.6735 37.2724 85.4731 36.2376 86.3309 35.2495C94.7462 25.546 106.865 23.6679 117.002 26.3666C117.853 26.5926 117.638 27.0757 117.515 27.5853C115.439 36.1774 110.841 42.9283 102.941 47.1534C95.5934 51.0812 87.8482 51.4585 79.9452 49.2341C74.0433 47.5732 68.3852 45.3621 63.6416 41.2637C53.5034 32.5012 50.6562 18.3357 56.6409 6.35804C57.0686 5.49972 57.4744 5.67757 58.0949 5.94846C69.7717 11.0082 76.7109 21.7665 76.4814 34.4644C76.4748 34.8207 76.4658 35.1761 76.4576 35.5291C76.5583 35.5375 76.6614 35.5467 76.7612 35.5574L76.7652 35.5535Z" fill="#1C3C31"/>
<path d="M54.692 59.7808C57.304 51.319 67.1495 47.1203 75.6187 50.2395C84.276 53.4292 89.1413 61.8804 86.1396 70.6772C82.9529 80.0154 72.8116 83.5352 64.8176 80.6923C56.8457 77.8544 51.4276 68.4468 54.692 59.7808Z" fill="#BE153E"/>
<path d="M65.6709 109.986C64.7018 112.659 64.4901 115.032 64.8864 117.466C65.0291 118.342 65.2107 119.212 65.5991 119.984C67.6673 124.093 66.7121 127.86 64.2874 131.399C60.6472 136.713 53.6305 139.157 47.3842 137.623C42.3564 136.39 38.4882 133.69 35.9976 129.19C34.1325 125.821 33.6953 122.164 34.6576 118.4C35.2819 115.963 36.3354 113.736 38.4155 112.202C39.6493 111.294 41.0754 110.689 42.2248 109.603C43.8326 108.083 45.0635 106.348 45.9194 104.323C46.0256 104.071 46.0073 103.671 46.3797 103.654C46.7363 103.637 46.7792 104.026 46.9192 104.266C48.5052 107.023 50.4247 109.431 53.395 110.838C55.4302 111.801 57.5704 111.94 59.7402 111.733C61.6898 111.549 63.5479 110.931 65.6702 109.98L65.6709 109.986Z" fill="#BE153E"/>
<path d="M108.873 101.179C106.673 107.019 102.593 110.515 96.8793 112.234C96.0669 112.479 95.6463 112.412 95.32 111.492C94.2812 108.566 92.4407 106.252 89.7452 104.635C88.7209 104.02 87.611 103.59 86.4857 103.389C82.9507 102.753 81.3856 100.242 80.2494 97.2297C78.991 93.8958 78.5867 90.3349 77.4516 86.9668C77.1228 85.9923 76.2939 84.9666 76.6694 84.0212C77.0506 83.0671 78.4063 83.0484 79.3203 82.603C81.9985 81.2898 84.2572 79.486 86.0889 77.1517C86.5555 76.5565 86.7614 76.3225 87.2472 77.1814C88.4184 79.25 89.6927 81.2587 91.5509 82.8245C93.768 84.6953 96.3815 85.6756 99.1947 85.3521C104.546 84.7399 108.345 88.7445 109.318 93.7058C109.826 96.3013 109.582 98.8514 108.876 101.178L108.873 101.179Z" fill="#BE153E"/>
<path d="M50.6063 63.8459C50.4864 68.237 51.5931 72.1158 53.8618 75.6538C54.1586 76.1152 53.911 76.3163 53.5379 76.5269C50.6879 78.1363 48.2214 80.2639 45.6627 82.2744C43.6903 83.8269 41.5785 85.1611 39.1087 85.8347C37.8531 86.1776 36.6643 86.1134 35.4307 85.6805C33.7426 85.0873 32.1221 84.2918 30.3074 84.0718C27.3405 83.7125 24.6669 84.5067 22.2343 86.1228C21.3888 86.6849 20.9293 86.5468 20.3989 85.7787C17.1335 81.04 15.905 75.8575 17.6749 70.3306C19.2362 65.4591 22.3866 61.8796 27.6519 60.7648C30.2456 60.2164 32.6344 60.8719 34.6165 62.6931C38.6065 66.3603 43.107 66.7545 47.9867 64.8368C48.7952 64.5195 49.6114 64.2181 50.6056 63.8404L50.6063 63.8459Z" fill="#BE153E"/>
<path d="M74.098 97.7899C71.6179 103.113 66.6189 107.382 59.3239 108.736C56.3691 109.284 53.935 108.17 51.907 106.006C47.0573 100.835 45.4722 91.7547 48.4227 85.519C49.9582 82.2693 52.9313 80.5883 55.8946 78.9199C56.3428 78.6689 56.5683 78.9303 56.8507 79.2035C61.1864 83.4288 66.3605 85.2357 72.384 84.5538C72.7631 84.5099 73.0263 84.5321 73.1931 84.9166C74.8061 88.607 76.1289 92.3297 74.0948 97.7915L74.098 97.7899Z" fill="#BE153E"/>
<path d="M49.7013 40.0917C54.2619 41.6302 57.4313 44.3091 60.0247 47.7684C60.5168 48.425 60.3977 48.6918 59.7172 49.0614C55.5859 51.3103 52.9232 54.7775 51.4925 59.2188C51.2971 59.8283 51.0055 60.1946 50.408 60.447C48.7155 61.1617 47.0869 62.0366 45.305 62.5264C42.375 63.3326 39.5726 63.0118 37.3016 60.9364C34.3107 58.2025 30.9195 57.0827 26.942 57.6851C26.0253 57.8241 26.27 57.2025 26.2706 56.7565C26.2816 46.9336 33.8917 39.2616 43.725 39.1433C45.9227 39.1164 48.0543 39.449 49.7045 40.0901L49.7013 40.0917Z" fill="#BE153E"/>
<path d="M101.829 58.1502C111.705 61.6639 116.465 71.8502 112.766 81.5633C112.15 83.1796 111.198 84.5998 110.123 85.9456C109.734 86.4322 109.494 86.5293 108.981 85.9931C106.482 83.3714 103.446 82.0638 99.7648 82.3547C96.1712 82.6387 93.4237 81.11 91.4917 78.1562C89.8029 75.5735 88.204 73.1601 89.6243 69.5996C90.9798 66.2025 90.2638 62.499 88.8954 59.0686C88.5941 58.3135 88.6488 58.0483 89.4976 57.814C93.5783 56.6843 97.927 56.7656 101.828 58.1549L101.829 58.1502Z" fill="#BE153E"/>
<path d="M77.12 98.5708C77.71 99.6039 78.2016 100.568 78.79 101.468C80.2745 103.752 82.2242 105.559 84.9487 106.081C92.3075 107.493 94.9601 115.692 90.6575 121.852C86.4921 127.816 80.5074 129.496 73.5695 128.594C73.4047 128.572 73.2409 128.531 73.0786 128.493C72.0221 128.247 70.7728 128.265 69.9584 127.68C69.0315 127.013 69.9446 125.781 69.8771 124.789C69.7516 122.937 69.5465 121.107 68.758 119.421C67.5338 116.8 67.708 114.175 68.3824 111.464C68.9843 109.046 70.016 107.05 72.1138 105.496C74.4293 103.781 75.7736 101.198 77.1184 98.5676L77.12 98.5708Z" fill="#BE153E"/>
<path d="M44.352 87.1967C43.3764 91.0681 43.6518 94.656 44.4915 98.2325C44.5655 98.5476 44.6127 98.9172 44.5179 99.2136C43.2665 103.122 41.8108 106.87 37.8261 108.933C35.6581 110.054 34.0516 111.808 32.9406 113.993C32.7001 114.465 32.4435 114.684 31.8653 114.46C25.6034 112.037 20.2914 107.494 19.3998 99.9532C19.0676 97.1423 19.4853 94.4586 20.9584 91.9867C23.6324 87.4983 28.2937 85.9271 33.0327 88.0852C36.242 89.5456 39.3501 89.3138 42.4945 88.0347C43.0288 87.8189 43.5476 87.5632 44.352 87.1967Z" fill="#BE153E"/>
</svg>
