<svg width="420" height="481" viewBox="0 0 420 481" fill="none" xmlns="http://www.w3.org/2000/svg">
<path d="M242.274 111.857C246.361 100.06 250.45 88.2566 254.537 76.4603C257.68 67.3874 260.983 58.3613 263.945 49.2338C264.885 46.3256 266.028 45.9695 268.708 47.0398C273.592 48.9826 278.555 50.794 283.615 52.2045C286.861 53.1117 286.847 54.5274 285.883 57.2605C278.905 77.1138 272.066 97.0237 265.184 116.911C264.81 117.993 264.437 119.067 264.558 120.454C267.161 117.261 269.676 114.004 272.375 110.894C298.85 80.3549 336.984 74.4377 368.884 82.9236C371.563 83.6344 370.886 85.1547 370.497 86.7583C363.971 113.796 349.507 135.043 324.651 148.343C301.531 160.707 277.159 161.899 252.289 154.904C233.716 149.681 215.91 142.727 200.981 129.833C169.074 102.266 160.106 57.6925 178.931 19.9985C180.276 17.2973 181.553 17.8567 183.506 18.7088C220.253 34.6234 242.095 68.4728 241.381 108.43C241.36 109.551 241.332 110.669 241.306 111.78C241.623 111.807 241.948 111.835 242.262 111.869L242.274 111.857Z" fill="#1C3C31"/>
<path d="M172.831 188.101C181.045 161.473 212.024 148.254 238.676 158.065C265.92 168.097 281.236 194.687 271.795 222.37C261.773 251.757 229.863 262.839 204.706 253.898C179.619 244.973 162.564 215.373 172.831 188.101Z" fill="#BE153E"/>
<path d="M207.395 346.089C204.346 354.501 203.682 361.968 204.93 369.629C205.38 372.384 205.952 375.122 207.175 377.552C213.685 390.479 210.682 402.333 203.054 413.471C191.602 430.195 169.524 437.889 149.868 433.068C134.046 429.191 121.872 420.695 114.032 406.538C108.161 395.939 106.783 384.43 109.809 372.584C111.772 364.916 115.086 357.907 121.63 353.08C125.512 350.221 129.999 348.316 133.616 344.897C138.674 340.115 142.546 334.654 145.238 328.283C145.572 327.487 145.515 326.231 146.686 326.177C147.808 326.123 147.944 327.348 148.384 328.102C153.377 336.776 159.418 344.352 168.766 348.777C175.171 351.806 181.905 352.242 188.733 351.591C194.868 351.009 200.714 349.065 207.392 346.072L207.395 346.089Z" fill="#BE153E"/>
<path d="M343.351 318.34C336.433 336.718 323.595 347.722 305.616 353.135C303.06 353.904 301.737 353.696 300.709 350.8C297.439 341.594 291.646 334.314 283.163 329.227C279.939 327.291 276.446 325.939 272.905 325.306C261.781 323.307 256.854 315.408 253.278 305.929C249.315 295.439 248.041 284.234 244.467 273.636C243.432 270.57 240.823 267.343 242.004 264.368C243.203 261.365 247.469 261.305 250.345 259.903C258.772 255.769 265.878 250.092 271.641 242.745C273.108 240.872 273.756 240.136 275.285 242.838C278.972 249.347 282.983 255.667 288.831 260.593C295.809 266.478 304.034 269.562 312.886 268.542C329.725 266.612 341.681 279.211 344.746 294.823C346.346 302.99 345.58 311.014 343.361 318.335L343.351 318.34Z" fill="#BE153E"/>
<path d="M159.962 200.9C159.587 214.718 163.072 226.923 170.213 238.054C171.148 239.506 170.368 240.139 169.194 240.802C160.227 245.868 152.467 252.564 144.417 258.892C138.211 263.779 131.567 267.979 123.795 270.1C119.844 271.18 116.103 270.978 112.221 269.617C106.909 267.751 101.809 265.249 96.0988 264.558C86.7624 263.429 78.3499 265.93 70.696 271.017C68.0357 272.786 66.5899 272.352 64.9202 269.935C54.642 255.025 50.7732 238.718 56.3392 221.325C61.2491 205.995 71.1607 194.729 87.7285 191.218C95.8898 189.491 103.407 191.552 109.645 197.282C122.203 208.819 136.365 210.057 151.719 204.019C154.263 203.021 156.831 202.072 159.959 200.882L159.962 200.9Z" fill="#BE153E"/>
<path d="M233.907 307.701C226.106 324.453 210.378 337.891 187.423 342.156C178.126 343.882 170.466 340.376 164.083 333.568C148.819 317.299 143.825 288.727 153.106 269.103C157.936 258.876 167.29 253.585 176.614 248.333C178.024 247.543 178.734 248.365 179.623 249.225C193.269 262.518 209.551 268.201 228.506 266.051C229.698 265.913 230.527 265.983 231.052 267.192C236.129 278.804 240.294 290.518 233.897 307.706L233.907 307.701Z" fill="#BE153E"/>
<path d="M157.122 126.132C171.474 130.97 181.449 139.398 189.611 150.282C191.16 152.348 190.786 153.188 188.645 154.351C175.646 161.431 167.269 172.342 162.77 186.319C162.155 188.237 161.238 189.39 159.358 190.184C154.033 192.434 148.908 195.188 143.301 196.731C134.082 199.269 125.263 198.262 118.116 191.732C108.702 183.131 98.0307 179.61 85.5148 181.508C82.6304 181.946 83.4001 179.99 83.4016 178.586C83.4303 147.676 107.373 123.529 138.315 123.151C145.231 123.065 151.939 124.111 157.132 126.127L157.122 126.132Z" fill="#BE153E"/>
<path d="M321.142 182.949C352.22 194 367.207 226.051 355.572 256.618C353.635 261.704 350.64 266.174 347.259 270.409C346.035 271.941 345.277 272.247 343.664 270.559C335.8 262.311 326.244 258.198 314.661 259.116C303.353 260.012 294.707 255.203 288.625 245.909C283.309 237.783 278.277 230.19 282.744 218.985C287.007 208.295 284.752 196.641 280.444 185.847C279.495 183.471 279.667 182.637 282.338 181.899C295.178 178.341 308.862 178.595 321.137 182.964L321.142 182.949Z" fill="#BE153E"/>
<path d="M243.429 310.149C245.286 313.4 246.833 316.435 248.685 319.266C253.358 326.451 259.494 332.137 268.068 333.778C291.225 338.216 299.577 364.015 286.042 383.402C272.938 402.169 254.107 407.462 232.274 404.628C231.756 404.557 231.24 404.429 230.73 404.31C227.405 403.534 223.474 403.593 220.911 401.753C217.994 399.656 220.866 395.779 220.653 392.655C220.257 386.827 219.611 381.07 217.128 375.764C213.275 367.518 213.821 359.259 215.942 350.726C217.834 343.117 221.079 336.837 227.68 331.945C234.965 326.547 239.193 318.418 243.424 310.139L243.429 310.149Z" fill="#BE153E"/>
<path d="M140.3 274.382C137.233 286.564 138.102 297.855 140.746 309.108C140.979 310.1 141.128 311.263 140.83 312.196C136.894 324.496 132.316 336.289 119.778 342.784C112.957 346.312 107.903 351.832 104.408 358.71C103.651 360.195 102.844 360.885 101.025 360.179C81.3186 352.558 64.6004 338.267 61.7902 314.538C60.743 305.693 62.0559 297.248 66.6897 289.469C75.1016 275.343 89.7685 270.396 104.682 277.184C114.782 281.778 124.562 281.046 134.456 277.02C136.137 276.34 137.77 275.535 140.3 274.382Z" fill="#BE153E"/>
</svg>
