<svg width="330" height="311" viewBox="0 0 330 311" fill="none" xmlns="http://www.w3.org/2000/svg">
<path d="M312.792 186.271C312.145 201.867 309.365 216.845 301.426 230.639C293.784 243.918 282.541 252.455 268.143 256.928C260.132 259.418 251.924 261.272 243.8 263.412C239.612 263.52 235.743 265.95 231.43 265.107C222.407 267.014 213.33 267.041 204.229 265.854C202.861 265.598 201.526 265.145 200.12 265.065C197.843 264.354 195.293 264.245 193.683 262.109C191.006 260.991 190.003 263.378 188.461 264.624C163.337 284.962 134.8 295.902 102.293 294.649C85.6934 294.01 73.6356 283.913 62.8412 272.499C42.1555 250.613 37.3732 224.167 41.76 195.362C46.8851 161.691 66.2287 137.674 93.7356 119.251C95.9501 117.764 98.1786 116.284 100.407 114.805C100.774 114.711 101.235 114.475 101.522 114.627C108.949 118.538 116.517 121.703 125.172 121.973C127.942 122.061 128.454 125.187 127.097 127.44C119.891 139.365 126.82 150.39 129.108 161.697C129.55 163.894 131.127 164.368 133.038 163.36C142.995 158.1 152.157 152.131 155.866 140.516C158.051 133.659 159.593 133.207 165.5 137.612C174.073 144.026 183.469 147.483 194.277 147.051C198.321 146.885 199.737 145.565 198.767 141.431C196.949 133.782 193.75 126.615 191.484 119.115C190.456 115.73 186.856 114.196 184.171 112.073C182.202 110.525 180.394 108.168 183.541 106.715C191.618 102.999 195.715 96.0226 199.683 88.771C199.948 88.2772 200.517 88.0019 201.025 87.7185C202.564 87.528 204.009 87.6691 205.18 88.8274C210.936 89.481 216.695 90.1457 222.451 90.7993C224.861 91.1921 227.215 91.4922 229.65 92.1868L236.044 93.6726C240.156 94.4254 244.88 93.3996 247.791 97.6675C249.065 98.2074 250.343 98.7584 251.617 99.2983C263.911 102.976 273.775 109.855 282.299 119.656C287.089 125.163 292.905 129.91 296.899 136.152C299.379 140.032 302.383 143.827 302.513 148.803C302.951 149.544 303.391 150.296 303.829 151.038C306.709 154.768 308.048 159.093 308.686 163.691C309.349 166.294 310.012 168.896 310.683 171.484C311.768 176.348 314.989 180.904 312.83 186.238L312.792 186.271Z" fill="#BE153E"/>
<path d="M201.367 88.1876C198.253 97.7205 193.482 105.769 181.955 108.587C198.157 116.219 197.187 132.122 201.734 145.092C202.873 148.354 200.23 149.229 197.352 149.275C184.33 149.478 172.066 147.545 162.563 137.389C161.847 136.624 160.577 136.379 159.093 135.667C156.802 151.966 145.052 159.719 131.983 166.435C128.695 168.125 127.666 167.156 126.971 164.005C125.261 156.364 123.093 148.828 121.645 141.144C120.638 135.799 122.263 130.648 125.534 126.333C127.598 123.605 126.88 122.876 123.992 123.256C114.643 124.489 107.068 120.971 100.405 114.805C90.5302 103.05 88.3021 88.3052 84.6933 74.1372C83.9313 71.1457 81.1769 67.0274 83.646 65.1905C86.0346 63.4097 89.4433 66.9823 92.1944 68.4843C104.404 75.1325 116.489 81.9899 130.254 89.6749C125.963 82.4544 123.175 76.3907 120.695 70.1893C118.641 65.052 116.805 59.7995 116.908 54.16C117.108 42.622 124.92 34.8886 137.83 33.3171C148.248 32.049 156.557 37.8433 159.613 48.4928C162.531 58.6447 163.189 69.0404 163.402 79.8696C168.029 72.5566 172.586 65.2022 177.296 57.939C182.024 50.6479 186.904 43.4479 192.238 35.4221C193.297 38.4207 194.025 40.4854 194.749 42.5391C196.826 50.6907 198.927 58.8478 201.003 66.9994C205.551 72.4374 205.705 81.5522 201.367 88.1876Z" fill="#1C3C31"/>
<path d="M119.657 224.919L113.169 198.895L119.786 197.245L126.275 223.269L119.657 224.919ZM121.337 213.601L119.854 207.653L133.833 204.167L135.316 210.116L121.337 213.601ZM135.495 220.97L129.006 194.946L135.587 193.305L142.075 219.329L135.495 220.97ZM155.826 216.414C154.265 216.804 152.651 216.772 150.985 216.318C149.312 215.84 147.826 214.947 146.526 213.639C145.219 212.306 144.316 210.636 143.815 208.629C143.309 206.596 143.322 204.697 143.856 202.932C144.384 201.142 145.277 199.656 146.535 198.473C147.787 197.266 149.194 196.467 150.756 196.078C151.797 195.819 152.769 195.708 153.674 195.745C154.578 195.783 155.399 195.96 156.136 196.277C156.892 196.562 157.589 196.981 158.226 197.533L157.798 198.508L156.936 195.051L162.773 193.595L167.602 212.965L161.765 214.42L160.913 211L161.739 211.623C161.274 212.818 160.564 213.825 159.609 214.642C158.649 215.434 157.388 216.025 155.826 216.414ZM155.774 210.504C156.642 210.288 157.373 209.895 157.968 209.325C158.588 208.749 158.997 208.068 159.196 207.281C159.419 206.489 159.423 205.658 159.207 204.791C158.99 203.924 158.598 203.192 158.028 202.597C157.483 201.996 156.802 201.587 155.984 201.369C155.185 201.121 154.352 201.105 153.484 201.321C152.617 201.537 151.876 201.946 151.263 202.546C150.668 203.116 150.258 203.797 150.035 204.59C149.836 205.377 149.845 206.204 150.061 207.071C150.277 207.939 150.658 208.673 151.203 209.274C151.772 209.87 152.454 210.279 153.246 210.502C154.064 210.72 154.907 210.72 155.774 210.504ZM183.253 209.063L181.399 201.627L182.226 202.408C181.717 202.904 181.079 203.352 180.31 203.755C179.561 204.126 178.702 204.432 177.736 204.673C176.224 205.05 174.827 205.095 173.545 204.81C172.262 204.524 171.172 203.901 170.275 202.94C169.371 201.954 168.721 200.668 168.326 199.082L166.713 192.613L173.033 191.037L174.46 196.763C174.683 197.655 175.063 198.284 175.602 198.65C176.141 199.016 176.906 199.075 177.897 198.828C178.616 198.649 179.202 198.41 179.654 198.113C180.107 197.816 180.525 197.435 180.909 196.971L180.695 198.802L178.424 189.693L184.744 188.117L189.573 207.487L183.253 209.063ZM202.661 204.737C201.1 205.126 199.486 205.094 197.819 204.641C196.147 204.163 194.661 203.27 193.361 201.962C192.054 200.629 191.151 198.959 190.65 196.951C190.144 194.919 190.157 193.02 190.691 191.255C191.219 189.465 192.112 187.978 193.37 186.796C194.622 185.589 196.029 184.79 197.591 184.401C198.632 184.141 199.604 184.03 200.509 184.068C201.413 184.106 202.234 184.283 202.971 184.599C203.727 184.885 204.424 185.304 205.061 185.855L204.633 186.831L203.771 183.373L209.608 181.918L214.437 201.288L208.6 202.743L207.748 199.322L208.574 199.946C208.109 201.141 207.399 202.147 206.444 202.964C205.484 203.757 204.223 204.348 202.661 204.737ZM202.609 198.827C203.477 198.61 204.208 198.217 204.803 197.648C205.423 197.072 205.832 196.391 206.031 195.604C206.254 194.811 206.258 193.981 206.042 193.114C205.825 192.246 205.433 191.515 204.863 190.92C204.318 190.319 203.637 189.909 202.819 189.692C202.02 189.444 201.187 189.428 200.319 189.644C199.452 189.86 198.711 190.269 198.098 190.869C197.503 191.439 197.093 192.12 196.87 192.913C196.671 193.699 196.68 194.527 196.896 195.394C197.112 196.261 197.493 196.996 198.038 197.597C198.607 198.192 199.289 198.602 200.081 198.825C200.899 199.042 201.742 199.043 202.609 198.827ZM222.801 199.202L219.362 185.409L213.711 186.818L212.321 181.242L229.906 176.857L231.296 182.434L225.645 183.843L229.084 197.636L222.801 199.202ZM237.455 195.549L232.626 176.179L238.946 174.603L242.617 189.326L245.256 188.667C246.149 188.445 246.784 188.089 247.162 187.6C247.565 187.105 247.683 186.522 247.516 185.853C247.356 185.209 246.981 184.762 246.393 184.514C245.829 184.26 245.101 184.244 244.209 184.466L240.082 185.495L238.923 180.848L243.831 179.624C245.516 179.204 247.037 179.128 248.394 179.395C249.744 179.638 250.868 180.187 251.766 181.042C252.689 181.891 253.317 182.985 253.651 184.324C253.99 185.687 253.952 186.96 253.537 188.143C253.146 189.32 252.414 190.345 251.342 191.218C250.263 192.066 248.881 192.7 247.196 193.12L237.455 195.549Z" fill="#FFFAED"/>
</svg>
