<svg width="324" height="373" viewBox="0 0 324 373" fill="none" xmlns="http://www.w3.org/2000/svg">
<path d="M186.832 86.5231C189.994 77.3981 193.157 68.2672 196.318 59.1421C198.75 52.1237 201.304 45.1416 203.595 38.081C204.323 35.8313 205.207 35.5558 207.28 36.3838C211.058 37.8866 214.897 39.2878 218.812 40.3789C221.322 41.0807 221.311 42.1758 220.566 44.2901C215.168 59.6477 209.877 75.0491 204.554 90.4327C204.264 91.2696 203.976 92.1007 204.07 93.1739C206.083 90.7037 208.029 88.1844 210.116 85.7788C230.596 62.1548 260.095 57.5776 284.772 64.1419C286.844 64.6917 286.32 65.8677 286.019 67.1082C280.971 88.0237 269.783 104.459 250.555 114.747C232.671 124.312 213.818 125.234 194.579 119.823C180.212 115.783 166.438 110.403 154.89 100.429C130.207 79.1042 123.27 44.6242 137.832 15.4658C138.873 13.3763 139.861 13.8091 141.371 14.4682C169.797 26.779 186.693 52.9634 186.141 83.8724C186.125 84.7396 186.103 85.6047 186.083 86.4641C186.328 86.4844 186.579 86.5067 186.822 86.5327L186.832 86.5231Z" fill="#1C3C31"/>
<path d="M133.114 145.506C139.468 124.907 163.432 114.682 184.049 122.271C205.123 130.031 216.971 150.601 209.668 172.015C201.915 194.747 177.231 203.32 157.771 196.404C138.365 189.5 125.172 166.602 133.114 145.506Z" fill="#BE153E"/>
<path d="M159.851 267.723C157.493 274.23 156.979 280.006 157.945 285.932C158.292 288.063 158.735 290.181 159.681 292.06C164.717 302.06 162.393 311.23 156.493 319.846C147.635 332.783 130.556 338.735 115.351 335.005C103.112 332.006 93.6943 325.434 87.6299 314.483C83.0881 306.284 82.0221 297.381 84.3629 288.218C85.8814 282.286 88.4448 276.865 93.5074 273.13C96.5102 270.919 99.9814 269.445 102.779 266.801C106.692 263.101 109.687 258.877 111.769 253.948C112.028 253.333 111.983 252.361 112.89 252.319C113.758 252.278 113.862 253.225 114.203 253.809C118.065 260.519 122.739 266.378 129.969 269.802C134.924 272.145 140.134 272.482 145.415 271.979C150.161 271.528 154.683 270.024 159.849 267.709L159.851 267.723Z" fill="#BE153E"/>
<path d="M265.02 246.251C259.668 260.468 249.738 268.98 235.83 273.167C233.853 273.762 232.829 273.601 232.034 271.36C229.504 264.239 225.023 258.608 218.461 254.673C215.967 253.175 213.265 252.13 210.526 251.64C201.921 250.093 198.11 243.983 195.343 236.65C192.278 228.536 191.293 219.868 188.528 211.67C187.727 209.298 185.709 206.802 186.623 204.5C187.55 202.178 190.85 202.132 193.075 201.047C199.593 197.849 205.09 193.457 209.548 187.774C210.684 186.325 211.185 185.756 212.367 187.846C215.219 192.881 218.322 197.77 222.846 201.58C228.244 206.133 234.606 208.518 241.454 207.73C254.48 206.237 263.728 215.983 266.099 228.059C267.337 234.377 266.744 240.584 265.028 246.247L265.02 246.251Z" fill="#BE153E"/>
<path d="M123.158 155.406C122.868 166.095 125.564 175.536 131.088 184.147C131.811 185.27 131.208 185.76 130.3 186.272C123.364 190.191 117.361 195.371 111.133 200.267C106.333 204.047 101.193 207.295 95.1815 208.936C92.1253 209.771 89.2314 209.616 86.2284 208.562C82.1192 207.119 78.1741 205.184 73.7567 204.649C66.5346 203.776 60.027 205.71 54.1063 209.645C52.0484 211.014 50.93 210.678 49.6384 208.808C41.6877 197.275 38.695 184.661 43.0005 171.206C46.7986 159.348 54.4657 150.633 67.2819 147.917C73.5951 146.581 79.4102 148.175 84.2357 152.607C93.9498 161.532 104.905 162.49 116.782 157.819C118.75 157.047 120.737 156.313 123.156 155.393L123.158 155.406Z" fill="#BE153E"/>
<path d="M180.361 238.018C174.327 250.977 162.16 261.371 144.403 264.671C137.211 266.006 131.286 263.294 126.348 258.028C114.541 245.443 110.678 223.341 117.857 208.161C121.593 200.25 128.83 196.156 136.042 192.094C137.133 191.483 137.682 192.119 138.369 192.784C148.925 203.067 161.521 207.463 176.183 205.8C177.106 205.693 177.746 205.747 178.152 206.683C182.08 215.665 185.302 224.726 180.353 238.022L180.361 238.018Z" fill="#BE153E"/>
<path d="M120.957 97.5698C132.059 101.313 139.775 107.832 146.089 116.251C147.288 117.85 146.998 118.499 145.341 119.399C135.286 124.875 128.806 133.316 125.326 144.128C124.851 145.612 124.141 146.503 122.687 147.118C118.567 148.858 114.603 150.989 110.266 152.182C103.134 154.146 96.3127 153.366 90.7836 148.315C83.5018 141.662 75.2467 138.938 65.565 140.406C63.3337 140.745 63.9291 139.232 63.9302 138.146C63.9524 114.235 82.4732 95.5566 106.409 95.2642C111.759 95.1977 116.948 96.0063 120.965 97.566L120.957 97.5698Z" fill="#BE153E"/>
<path d="M247.84 141.523C271.881 150.071 283.473 174.864 274.474 198.509C272.975 202.444 270.658 205.901 268.043 209.178C267.096 210.362 266.51 210.599 265.262 209.294C259.179 202.913 251.786 199.732 242.826 200.441C234.079 201.135 227.391 197.415 222.686 190.225C218.574 183.939 214.681 178.066 218.137 169.398C221.435 161.128 219.69 152.114 216.358 143.764C215.624 141.926 215.757 141.281 217.823 140.71C227.755 137.958 238.341 138.154 247.836 141.534L247.84 141.523Z" fill="#BE153E"/>
<path d="M187.725 239.919C189.162 242.433 190.359 244.781 191.792 246.971C195.407 252.529 200.153 256.927 206.786 258.197C224.699 261.629 231.16 281.587 220.689 296.583C210.553 311.101 195.986 315.195 179.097 313.003C178.696 312.948 178.297 312.849 177.902 312.757C175.33 312.157 172.289 312.202 170.307 310.779C168.05 309.157 170.272 306.158 170.107 303.741C169.801 299.233 169.301 294.78 167.381 290.675C164.4 284.297 164.823 277.908 166.463 271.307C167.927 265.421 170.437 260.563 175.543 256.779C181.178 252.603 184.449 246.315 187.722 239.911L187.725 239.919Z" fill="#BE153E"/>
<path d="M107.946 212.253C105.573 221.677 106.245 230.411 108.291 239.116C108.471 239.883 108.586 240.783 108.356 241.505C105.312 251.019 101.77 260.142 92.0713 265.166C86.7945 267.896 82.8848 272.165 80.1815 277.486C79.5963 278.634 78.9718 279.168 77.5642 278.622C62.3206 272.727 49.3881 261.672 47.2143 243.316C46.4042 236.474 47.4198 229.942 51.0044 223.924C57.5114 212.997 68.8571 209.17 80.3935 214.421C88.2062 217.975 95.7717 217.409 103.425 214.294C104.726 213.769 105.989 213.146 107.946 212.253Z" fill="#BE153E"/>
</svg>
