<svg width="189" height="185" viewBox="0 0 189 185" fill="none" xmlns="http://www.w3.org/2000/svg">
<path d="M95.31 75.1844C93.4074 71.913 91.5036 68.6395 89.6011 65.3681C88.1377 62.852 86.7166 60.3085 85.2049 57.8233C84.7226 57.0321 84.8667 56.6991 85.6424 56.295C87.0546 55.5568 88.4521 54.7745 89.7767 53.8906C90.6269 53.3242 90.9494 53.6074 91.3869 54.3692C94.5691 59.898 97.7919 65.4061 101.001 70.9193C101.176 71.2193 101.349 71.5173 101.692 71.7638C101.472 70.5345 101.221 69.3125 101.04 68.0776C99.2573 55.9559 105.438 46.0232 113.695 40.371C114.387 39.896 114.603 40.3522 114.895 40.7585C119.817 47.604 121.84 55.1283 119.981 63.4696C118.251 71.2267 113.706 77.0626 107.182 81.3944C102.309 84.6295 97.1909 87.346 91.2764 88.2272C78.6331 90.1085 66.6178 83.3563 61.6783 71.5778C61.3236 70.7346 61.7046 70.5518 62.2865 70.2715C73.209 64.9743 85.3056 66.6479 94.3459 74.7122C94.5994 74.9386 94.8508 75.1662 95.1011 75.3917C95.1697 75.3241 95.2405 75.2553 95.3103 75.1897L95.31 75.1844Z" fill="#1C3C31"/>
<path d="M99.1031 106.217C94.6083 99.0644 97.696 89.3326 105.22 85.1479C112.912 80.8712 122.05 82.6094 126.544 90.2521C131.316 98.3653 127.553 107.889 120.524 111.902C113.513 115.902 103.34 113.968 99.1031 106.217Z" fill="#BE153E"/>
<path d="M142.233 129.509C143.563 131.873 145.148 133.502 147.155 134.73C147.877 135.171 148.619 135.581 149.419 135.78C153.677 136.84 155.807 139.874 156.858 143.829C158.437 149.767 155.839 156.362 150.845 159.925C146.826 162.794 142.467 163.912 137.664 162.914C134.067 162.167 131.15 160.209 129.027 157.171C127.653 155.204 126.698 153.057 126.882 150.598C126.993 149.141 127.442 147.734 127.372 146.227C127.273 144.119 126.784 142.149 125.852 140.271C125.735 140.037 125.435 139.802 125.654 139.522C125.864 139.253 126.172 139.464 126.433 139.512C129.413 140.08 132.348 140.19 135.213 138.917C137.175 138.044 138.607 136.583 139.807 134.885C140.887 133.36 141.596 131.632 142.228 129.506L142.233 129.509Z" fill="#BE153E"/>
<path d="M162.744 92.7831C165.599 98.0065 165.589 103.132 163.278 108.334C162.95 109.073 162.64 109.336 161.771 108.999C159.009 107.931 156.191 107.822 153.345 108.766C152.263 109.124 151.262 109.659 150.416 110.348C147.757 112.509 144.968 112.079 142.083 111.027C138.889 109.863 136.062 107.94 132.921 106.666C132.011 106.298 130.754 106.259 130.304 105.4C129.851 104.531 130.681 103.539 130.927 102.6C131.643 99.8468 131.744 97.0913 131.195 94.3147C131.055 93.607 131.014 93.3125 131.937 93.4955C134.161 93.9352 136.407 94.2631 138.695 93.8932C141.427 93.4535 143.762 92.1732 145.278 89.9375C148.163 85.6867 153.422 85.4305 157.616 87.8127C159.809 89.0599 161.501 90.8226 162.745 92.7798L162.744 92.7831Z" fill="#BE153E"/>
<path d="M99.4984 111.708C102.599 114.526 106.093 116.138 110.063 116.698C110.581 116.771 110.572 117.075 110.493 117.476C109.884 120.538 109.888 123.645 109.751 126.746C109.647 129.138 109.298 131.495 108.249 133.7C107.716 134.822 106.93 135.642 105.849 136.264C104.37 137.116 102.787 137.793 101.499 138.969C99.3938 140.891 98.3051 143.319 97.9607 146.083C97.8412 147.044 97.4557 147.291 96.5701 147.196C91.1121 146.61 86.6 144.275 83.7039 139.557C81.152 135.398 80.523 130.893 82.992 126.392C84.2087 124.175 86.1687 122.855 88.7186 122.555C93.8526 121.95 96.9372 118.941 98.5856 114.219C98.859 113.437 99.1488 112.659 99.4939 111.705L99.4984 111.708Z" fill="#BE153E"/>
<path d="M138.655 115.821C140.962 120.926 140.94 127.197 137.382 133.315C135.94 135.793 133.62 136.859 130.794 136.98C124.037 137.271 116.485 132.769 113.81 126.757C112.415 123.625 113.049 120.429 113.686 117.248C113.783 116.768 114.112 116.767 114.485 116.733C120.238 116.226 124.763 113.608 128.017 108.828C128.221 108.526 128.401 108.35 128.783 108.468C132.455 109.597 135.97 110.956 138.654 115.825L138.655 115.821Z" fill="#BE153E"/>
<path d="M81.7539 97.5724C85.7034 95.2312 89.6122 94.6055 93.7271 94.8817C94.5081 94.9343 94.627 95.1863 94.4709 95.9084C93.5275 100.295 94.3787 104.377 96.7006 108.175C97.0199 108.695 97.1034 109.134 96.9143 109.723C96.3784 111.391 95.9981 113.113 95.2439 114.707C94.0043 117.327 92.0293 119.154 89.1157 119.506C85.2781 119.968 82.3589 121.724 80.3205 124.975C79.8508 125.725 79.5535 125.161 79.2313 124.883C72.1343 118.765 71.3197 108.489 77.3507 101.305C78.6983 99.6984 80.2647 98.3637 81.7548 97.5691L81.7539 97.5724Z" fill="#BE153E"/>
<path d="M127.239 71.1108C135.923 66.1545 146.251 69.0479 150.974 77.7648C151.76 79.2158 152.195 80.7876 152.5 82.4019C152.61 82.986 152.53 83.2206 151.823 83.2577C148.373 83.4339 145.539 84.8166 143.459 87.6596C141.43 90.4351 138.615 91.4711 135.277 91.0309C132.359 90.6458 129.619 90.3009 127.927 87.059C126.314 83.9657 123.19 82.1798 119.858 81.0357C119.125 80.7838 118.967 80.5793 119.325 79.8197C121.047 76.1659 123.811 73.0715 127.242 71.1149L127.239 71.1108Z" fill="#BE153E"/>
<path d="M141.106 114.123C142.22 114.339 143.223 114.584 144.24 114.718C146.815 115.065 149.335 114.779 151.407 113.133C157.005 108.69 164.585 111.871 166.363 118.815C168.085 125.537 165.578 130.91 160.61 135.367C160.491 135.472 160.36 135.565 160.232 135.659C159.396 136.269 158.632 137.184 157.703 137.409C156.644 137.665 156.321 136.238 155.561 135.67C154.144 134.608 152.693 133.619 150.983 133.14C148.326 132.395 146.537 130.636 144.995 128.462C143.621 126.523 142.819 124.535 143 122.052C143.2 119.31 142.169 116.731 141.103 114.122L141.106 114.123Z" fill="#BE153E"/>
<path d="M112.494 130.746C114.687 133.86 117.453 135.892 120.562 137.51C120.836 137.652 121.132 137.848 121.288 138.101C123.336 141.437 125.14 144.821 124.154 148.986C123.616 151.251 123.885 153.504 124.775 155.667C124.966 156.134 124.965 156.456 124.443 156.735C118.796 159.756 112.206 160.772 106.198 156.726C103.959 155.218 102.278 153.246 101.406 150.643C99.8239 145.918 101.587 141.569 106.095 139.485C109.148 138.072 110.914 135.68 111.944 132.611C112.121 132.09 112.259 131.556 112.494 130.746Z" fill="#BE153E"/>
<path d="M21.3225 45.185C20.3679 46.4075 19.4127 47.6308 18.458 48.8533C17.7238 49.7936 16.9727 50.722 16.2576 51.676C16.0301 51.9801 15.8814 51.976 15.6095 51.7425C15.1134 51.3177 14.6027 50.9053 14.0645 50.536C13.7194 50.2989 13.778 50.133 14.0011 49.8505C15.6196 47.797 17.2239 45.7312 18.8323 43.6699C18.9199 43.5578 19.0069 43.4464 19.0484 43.2785C18.6141 43.5493 18.1875 43.831 17.7452 44.0881C13.4051 46.6142 8.68404 45.7769 5.27496 43.4969C4.98862 43.3057 5.12934 43.1542 5.23947 42.9813C7.09355 40.0649 9.64803 38.1486 13.1048 37.5842C16.3199 37.06 19.233 37.8996 21.8756 39.7217C23.8491 41.0823 25.6629 42.6156 26.8997 44.7315C29.5427 49.2551 28.8052 54.8557 25.0768 58.5304C24.8101 58.7939 24.6825 58.6768 24.4871 58.4981C20.8068 55.15 19.5997 50.2925 21.2899 45.6238C21.3374 45.4928 21.3856 45.3625 21.4333 45.2329C21.3971 45.2171 21.3601 45.2007 21.3245 45.1841L21.3225 45.185Z" fill="#1C3C31"/>
<path d="M32.5433 39.0132C30.5071 41.8135 26.3339 42.1222 23.5949 39.8975C20.7953 37.623 20.0637 33.8813 22.2863 31.0063C24.6459 27.9544 28.8428 27.9342 31.4408 29.9966C34.0314 32.0544 34.8465 36.2198 32.5433 39.0132Z" fill="#BE153E"/>
<path d="M34.8329 19.0487C35.5294 18.1823 35.9077 17.3313 36.0689 16.3804C36.1268 16.0385 36.1696 15.6935 36.1235 15.3588C35.8778 13.5773 36.7074 12.3045 38.0518 11.3017C40.0704 9.7959 42.9753 9.77888 45.0924 11.1358C46.7966 12.2276 47.8862 13.7158 48.2388 15.6952C48.503 17.1774 48.2023 18.5857 47.3704 19.8567C46.8314 20.6793 46.1601 21.37 45.1966 21.6745C44.6253 21.8545 44.0212 21.8981 43.4587 22.1546C42.6718 22.5136 41.997 22.9999 41.4244 23.6407C41.3532 23.7208 41.3094 23.8708 41.1695 23.83C41.0354 23.7913 41.0688 23.6418 41.0473 23.5354C40.8091 22.315 40.4033 21.1816 39.4823 20.2856C38.8511 19.672 38.0768 19.35 37.248 19.1521C36.5033 18.9739 35.7379 18.9675 34.8325 19.0509L34.8329 19.0487Z" fill="#BE153E"/>
<path d="M17.731 16.8467C19.2831 14.9643 21.2347 14.1866 23.5659 14.2731C23.8973 14.2854 24.0446 14.363 24.0489 14.7448C24.0634 15.9586 24.4517 17.0473 25.2446 17.9863C25.5457 18.3435 25.902 18.6428 26.2928 18.8596C27.5203 19.5418 27.7819 20.6685 27.8214 21.9266C27.8655 23.3191 27.5649 24.6876 27.559 26.0772C27.5575 26.4793 27.7345 26.9636 27.476 27.2659C27.2144 27.5707 26.7104 27.4062 26.316 27.4554C25.1591 27.6027 24.0955 27.9845 23.1227 28.6165C22.8748 28.7777 22.7691 28.8382 22.6979 28.4591C22.5261 27.5457 22.3086 26.6414 21.8191 25.8273C21.2354 24.8548 20.3924 24.1617 19.3108 23.9258C17.2536 23.4757 16.3544 21.5139 16.6216 19.5554C16.7619 18.531 17.1745 17.6184 17.7296 16.8469L17.731 16.8467Z" fill="#BE153E"/>
<path d="M34.5738 38.029C35.1733 36.4196 35.2543 34.8447 34.8622 33.2489C34.8107 33.0407 34.9277 32.9976 35.0924 32.9669C36.3503 32.7317 37.5318 32.2565 38.7326 31.8361C39.6585 31.5111 40.6085 31.2845 41.6074 31.3475C42.1153 31.3794 42.547 31.5534 42.9486 31.8695C43.4982 32.3024 43.9971 32.8016 44.6407 33.1124C45.6929 33.6204 46.7824 33.6646 47.8867 33.3742C48.2706 33.2732 48.4231 33.3823 48.5223 33.7336C49.1312 35.8995 48.9305 37.9722 47.577 39.7932C46.3836 41.398 44.7655 42.3241 42.6766 42.0708C41.6477 41.9458 40.8468 41.4013 40.3437 40.477C39.3312 38.6158 37.716 37.901 35.6683 37.9936C35.329 38.0087 34.989 38.017 34.5734 38.0311L34.5738 38.029Z" fill="#BE153E"/>
<path d="M30.1723 22.4949C31.7628 20.839 34.152 19.8915 37.0221 20.3129C38.1845 20.4837 38.9441 21.2038 39.4208 22.2607C40.5613 24.7869 39.9998 28.3466 38.1199 30.2806C37.141 31.2887 35.8285 31.5348 34.5213 31.7774C34.3237 31.8136 34.2734 31.6884 34.2034 31.5516C33.1335 29.4403 31.4478 28.1177 29.1331 27.6084C28.9873 27.5768 28.8927 27.5353 28.8796 27.3719C28.7494 25.8027 28.7306 24.2582 30.1737 22.4947L30.1723 22.4949Z" fill="#BE153E"/>
<path d="M31.9034 46.9284C30.4106 45.7826 29.5768 44.3908 29.0546 42.7831C28.9556 42.478 29.0334 42.3943 29.3319 42.3436C31.1446 42.0339 32.568 41.0878 33.6588 39.6256C33.8082 39.4248 33.9624 39.3261 34.2153 39.3083C34.9318 39.2579 35.6449 39.1401 36.3661 39.1841C37.552 39.2563 38.5482 39.7292 39.1261 40.7842C39.887 42.1737 41 43.0167 42.5477 43.2967C42.9044 43.3612 42.7353 43.5602 42.6787 43.7251C41.4328 47.3579 37.6474 49.2341 33.9945 48.0347C33.178 47.7668 32.4315 47.3743 31.902 46.9285L31.9034 46.9284Z" fill="#BE153E"/>
<path d="M14.9011 33.6543C11.6917 31.1059 11.2183 26.7355 13.8148 23.6097C14.247 23.0896 14.7787 22.6845 15.3465 22.3225C15.5519 22.1917 15.6533 22.1862 15.7752 22.4494C16.3681 23.7352 17.3262 24.6028 18.7248 24.9606C20.0902 25.3098 20.9134 26.2227 21.2548 27.5598C21.5531 28.7288 21.8395 29.8238 20.8639 30.9615C19.9329 32.0469 19.7296 33.5076 19.8022 34.9497C19.8182 35.2671 19.7644 35.3583 19.4208 35.3377C17.7683 35.2398 16.1697 34.6599 14.9023 33.6528L14.9011 33.6543Z" fill="#BE153E"/>
<path d="M29.1523 21.8259C29.0646 21.3691 29.0047 20.9501 28.9007 20.5428C28.6402 19.5104 28.1474 18.5953 27.2054 18.0576C24.6614 16.6051 24.7166 13.2363 27.0872 11.5012C29.3821 9.82163 31.8087 9.95642 34.2615 11.1672C34.3196 11.1964 34.375 11.2322 34.4303 11.2666C34.79 11.4915 35.2545 11.6426 35.4818 11.962C35.7405 12.3258 35.2469 12.6661 35.1464 13.042C34.9587 13.7431 34.8033 14.4458 34.8818 15.1693C35.0034 16.2937 34.6071 17.2427 34.0148 18.1606C33.4864 18.9791 32.8525 19.5869 31.8799 19.8967C30.8064 20.2385 29.9825 21.0241 29.1524 21.8273L29.1523 21.8259Z" fill="#BE153E"/>
<path d="M39.8391 30.1796C40.6894 28.8707 41.0411 27.5085 41.1826 26.0792C41.1951 25.9532 41.2243 25.8105 41.2969 25.7128C42.254 24.425 43.2663 23.2226 45.0014 22.963C45.9451 22.8224 46.7612 22.3767 47.4485 21.7085C47.5972 21.5644 47.7198 21.5158 47.9053 21.6719C49.9157 23.36 51.3066 25.7121 50.6831 28.6147C50.4507 29.6966 49.9569 30.6367 49.0994 31.365C47.5427 32.6874 45.6195 32.6794 44.1391 31.2819C43.1364 30.3359 41.9572 30.0287 40.6322 30.1044C40.4073 30.1167 40.183 30.1457 39.8391 30.1796Z" fill="#BE153E"/>
</svg>
