<svg width="250" height="283" viewBox="0 0 250 283" fill="none" xmlns="http://www.w3.org/2000/svg">
<path d="M90.4192 72.2359C87.7857 65.4821 85.1505 58.7241 82.517 51.9703C80.4915 46.7758 78.554 41.542 76.4276 36.3917C75.7488 34.7518 76.1201 34.1641 77.7076 33.6287C80.5984 32.6492 83.4745 31.5818 86.2427 30.3006C88.0192 29.4799 88.5459 30.1112 89.1487 31.6823C93.5366 43.0867 98.0073 54.4638 102.451 65.8466C102.692 66.466 102.932 67.0812 103.508 67.649C103.456 65.2576 103.343 62.8708 103.365 60.4801C103.575 37.0121 118.208 20.0413 135.505 11.7855C136.957 11.0914 137.23 12.0184 137.662 12.8737C144.955 27.2844 146.557 42.1224 140.574 57.3592C135.006 71.5284 124.68 81.2295 111.051 87.4985C100.873 92.1806 90.3833 95.8084 78.9292 95.7274C54.4452 95.5499 33.7018 79.2186 27.8361 55.467C27.4141 53.7663 28.1892 53.5329 29.3733 53.1746C51.6107 46.3786 74.0093 53.1223 88.7342 71.0573C89.147 71.5607 89.5556 72.0658 89.9625 72.5666C90.1124 72.4589 90.2666 72.3495 90.4183 72.2461L90.4192 72.2359Z" fill="#1C3C31"/>
<path d="M88.4176 132.085C82.0257 117.22 90.7465 99.7147 106.223 94.0195C122.044 88.1996 138.825 94.1911 145.072 109.984C151.702 126.749 141.766 143.66 127.278 149.177C112.827 154.674 94.1438 148.007 88.4176 132.085Z" fill="#BE153E"/>
<path d="M163.169 188.924C164.987 193.79 167.504 197.341 170.94 200.259C172.176 201.307 173.459 202.303 174.914 202.917C182.659 206.181 185.793 212.553 186.613 220.348C187.846 232.053 180.98 243.766 170.475 249.033C162.02 253.275 153.44 254.101 144.645 250.793C138.059 248.317 133.118 243.747 129.997 237.371C127.978 233.242 126.805 228.896 127.881 224.298C128.522 221.573 129.788 219.041 130.1 216.169C130.536 212.15 130.193 208.278 128.985 204.448C128.833 203.97 128.335 203.437 128.833 202.972C129.308 202.525 129.829 203.016 130.308 203.184C135.78 205.14 141.303 206.215 147.101 204.652C151.073 203.581 154.215 201.239 156.989 198.381C159.482 195.814 161.335 192.754 163.161 188.917L163.169 188.924Z" fill="#BE153E"/>
<path d="M212.833 125.482C216.692 136.212 215.159 145.91 209.247 155.07C208.407 156.373 207.743 156.779 206.199 155.885C201.287 153.046 195.986 152.008 190.321 152.952C188.167 153.31 186.113 154.027 184.309 155.08C178.639 158.383 173.487 156.745 168.338 153.901C162.637 150.754 157.856 146.28 152.287 142.94C150.675 141.974 148.307 141.529 147.709 139.769C147.109 137.99 148.972 136.358 149.716 134.656C151.886 129.656 152.89 124.471 152.673 119.054C152.617 117.673 152.626 117.103 154.319 117.723C158.399 119.212 162.552 120.497 166.991 120.473C172.292 120.449 177.089 118.716 180.619 114.933C187.337 107.741 197.366 108.811 204.598 114.56C208.379 117.568 211.061 121.405 212.836 125.477L212.833 125.482Z" fill="#BE153E"/>
<path d="M87.5451 142.589C92.5808 148.839 98.7157 152.923 106.063 155.157C107.023 155.447 106.916 156.02 106.647 156.755C104.589 162.37 103.679 168.252 102.502 174.08C101.598 178.577 100.241 182.935 97.6033 186.798C96.263 188.762 94.5332 190.081 92.3043 190.941C89.2535 192.116 86.0568 192.929 83.2718 194.773C78.7191 197.788 75.941 202.061 74.4718 207.191C73.9616 208.974 73.159 209.327 71.511 208.887C61.3546 206.164 53.5057 200.41 49.4196 190.625C45.8198 181.999 45.9612 173.287 51.9646 165.498C54.9228 161.663 59.0223 159.744 63.9371 159.929C73.8321 160.303 80.5595 155.52 85.0752 147.071C85.8239 145.671 86.6023 144.285 87.5375 142.582L87.5451 142.589Z" fill="#BE153E"/>
<path d="M160.441 161.974C163.298 172.317 161.402 184.178 152.859 194.704C149.398 198.967 144.691 200.301 139.307 199.693C126.434 198.246 113.472 187.493 110.188 175.324C108.474 168.984 110.618 163.123 112.763 157.292C113.089 156.411 113.713 156.508 114.429 156.553C125.466 157.294 134.804 153.678 142.375 145.592C142.85 145.082 143.243 144.801 143.93 145.139C150.546 148.361 156.797 151.972 160.438 161.98L160.441 161.974Z" fill="#BE153E"/>
<path d="M58.1409 110.603C66.3077 107.34 73.8902 107.312 81.5961 109.051C83.0586 109.381 83.2091 109.894 82.7004 111.214C79.618 119.237 80.0219 127.214 83.2937 135.087C83.7441 136.167 83.7724 137.022 83.2403 138.081C81.7327 141.08 80.5038 144.227 78.6054 147.019C75.4848 151.612 71.2067 154.486 65.5888 154.29C58.1892 154.03 52.1454 156.49 47.3263 162.041C46.2159 163.32 45.8198 162.165 45.2922 161.544C33.6696 147.867 35.166 128.179 48.7042 116.365C51.7294 113.723 55.0886 111.661 58.1435 110.597L58.1409 110.603Z" fill="#BE153E"/>
<path d="M152.047 73.975C169.947 67.1625 188.638 75.6919 195 93.5855C196.058 96.5638 196.416 99.6671 196.516 102.812C196.551 103.95 196.331 104.371 194.983 104.232C188.401 103.545 182.628 105.324 177.852 110.09C173.19 114.743 167.557 115.871 161.37 114.051C155.961 112.46 150.877 110.997 148.635 104.361C146.495 98.03 141.112 93.7266 135.144 90.5761C133.83 89.8827 133.592 89.4489 134.495 88.1174C138.833 81.7113 144.979 76.6722 152.05 73.9836L152.047 73.975Z" fill="#BE153E"/>
<path d="M165.57 159.472C167.614 160.21 169.441 160.97 171.325 161.524C176.096 162.942 180.949 163.146 185.358 160.644C197.266 153.89 210.67 162.152 211.984 175.819C213.255 189.049 206.921 198.477 196.202 205.442C195.946 205.606 195.669 205.743 195.399 205.883C193.637 206.792 191.921 208.298 190.095 208.449C188.016 208.619 187.827 205.824 186.557 204.523C184.188 202.095 181.735 199.794 178.64 198.382C173.833 196.187 170.965 192.33 168.691 187.759C166.663 183.682 165.734 179.684 166.811 175.037C168 169.908 166.81 164.722 165.564 159.47L165.57 159.472Z" fill="#BE153E"/>
<path d="M106.514 182.48C109.744 189.021 114.378 193.686 119.783 197.666C120.26 198.016 120.763 198.475 120.983 198.999C123.873 205.919 126.287 212.856 123.189 220.447C121.501 224.575 121.344 228.918 122.389 233.275C122.613 234.216 122.516 234.825 121.446 235.198C109.864 239.246 97.0935 239.221 86.9189 229.787C83.1265 226.271 80.528 222.043 79.6485 216.859C78.0505 207.447 82.673 199.739 91.8217 197.127C98.0163 195.356 102.065 191.351 104.924 185.847C105.411 184.913 105.83 183.943 106.514 182.48Z" fill="#BE153E"/>
</svg>
