<svg width="150" height="130" viewBox="0 0 150 130" fill="none" xmlns="http://www.w3.org/2000/svg">
<path d="M91.4853 83.6159C91.961 82.1396 92.437 80.6623 92.9128 79.186C93.2787 78.0505 93.6645 76.9203 94.0077 75.7785C94.1166 75.4148 94.2576 75.3674 94.5934 75.4931C95.2053 75.7212 95.8267 75.9328 96.4591 76.0943C96.8647 76.1982 96.8668 76.3741 96.7545 76.7162C95.9414 79.2012 95.1457 81.6928 94.3447 84.1817C94.3011 84.3171 94.2578 84.4516 94.2766 84.6236C94.5912 84.2199 94.8948 83.8085 95.2216 83.4149C98.4276 79.5498 103.149 78.7117 107.134 79.6795C107.469 79.7605 107.389 79.9512 107.345 80.1514C106.607 83.5276 104.868 86.2059 101.816 87.9252C98.9781 89.5236 95.9539 89.7376 92.8457 88.936C90.5246 88.3375 88.294 87.5218 86.4047 85.9606C82.3667 82.6226 81.1321 77.1102 83.3685 72.377C83.5283 72.0379 83.6885 72.1039 83.9333 72.2045C88.5409 74.0819 91.3457 78.2274 91.365 83.1927C91.3655 83.332 91.365 83.471 91.3648 83.609C91.4043 83.6114 91.4446 83.6141 91.4838 83.6175L91.4853 83.6159Z" fill="#1C3C31"/>
<path d="M83.0686 93.2669C84.0169 89.937 87.8292 88.2112 91.1664 89.3577C94.5776 90.5301 96.5519 93.7917 95.4542 97.2559C94.2888 100.933 90.3551 102.396 87.206 101.354C84.0657 100.313 81.8671 96.6822 83.0686 93.2669Z" fill="#BE153E"/>
<path d="M87.7919 112.802C87.4361 113.855 87.3737 114.784 87.5495 115.733C87.6128 116.074 87.6913 116.412 87.8497 116.711C88.6934 118.299 88.3524 119.779 87.435 121.184C86.0578 123.292 83.3362 124.307 80.8815 123.762C78.9057 123.323 77.3705 122.301 76.3584 120.563C75.6004 119.262 75.3981 117.837 75.7419 116.357C75.965 115.399 76.3577 114.52 77.1576 113.902C77.632 113.537 78.1843 113.288 78.6242 112.854C79.2396 112.246 79.7058 111.557 80.023 110.758C80.0623 110.659 80.0517 110.503 80.1972 110.493C80.3364 110.483 80.3565 110.635 80.4133 110.727C81.0569 111.791 81.8278 112.716 83.0009 113.24C83.8047 113.599 84.6424 113.635 85.4888 113.536C86.2492 113.447 86.9702 113.19 87.7916 112.8L87.7919 112.802Z" fill="#BE153E"/>
<path d="M104.603 108.987C103.793 111.288 102.228 112.69 100.01 113.411C99.6943 113.513 99.5293 113.491 99.3939 113.134C98.9627 111.999 98.2235 111.111 97.156 110.502C96.7503 110.27 96.3128 110.111 95.8712 110.042C94.484 109.824 93.8507 108.856 93.3807 107.689C92.8602 106.396 92.6716 105.008 92.199 103.701C92.0621 103.323 91.7293 102.929 91.868 102.556C92.0088 102.18 92.5385 102.161 92.892 101.979C93.9275 101.443 94.7949 100.719 95.4908 99.7905C95.6681 99.5538 95.7466 99.4606 95.9438 99.7921C96.4194 100.591 96.9347 101.365 97.6744 101.961C98.5571 102.673 99.5871 103.034 100.684 102.883C102.77 102.598 104.29 104.131 104.713 106.062C104.933 107.072 104.86 108.071 104.604 108.986L104.603 108.987Z" fill="#BE153E"/>
<path d="M81.5006 94.8929C81.4915 96.6103 81.9574 98.1169 82.8745 99.4803C82.9945 99.6582 82.8995 99.7389 82.7554 99.8244C81.6553 100.478 80.7094 101.331 79.7266 102.139C78.969 102.762 78.155 103.302 77.1954 103.586C76.7076 103.731 76.2423 103.716 75.7564 103.558C75.0915 103.34 74.4513 103.043 73.7401 102.973C72.5773 102.858 71.5391 103.191 70.6021 103.844C70.2764 104.071 70.0957 104.021 69.8817 103.725C68.5647 101.901 68.04 99.8859 68.6843 97.7104C69.2528 95.7929 70.4535 94.3667 72.5019 93.8857C73.511 93.6491 74.4504 93.8848 75.2408 94.5796C76.8318 95.9788 78.5943 96.0942 80.4852 95.3027C80.7985 95.1718 81.115 95.047 81.5003 94.8908L81.5006 94.8929Z" fill="#BE153E"/>
<path d="M90.9775 107.957C90.0538 110.059 88.1365 111.771 85.2967 112.363C84.1465 112.602 83.1855 112.188 82.3742 111.359C80.4342 109.38 79.7366 105.844 80.8363 103.381C81.4086 102.098 82.5563 101.415 83.7002 100.738C83.8733 100.636 83.9636 100.736 84.0764 100.841C85.8074 102.455 87.8453 103.117 90.1939 102.798C90.3417 102.778 90.4447 102.784 90.5132 102.933C91.1754 104.362 91.7244 105.806 90.9762 107.958L90.9775 107.957Z" fill="#BE153E"/>
<path d="M80.9481 85.6168C82.744 86.179 84.0058 87.1989 85.0492 88.5287C85.2472 88.7812 85.203 88.8865 84.9401 89.0368C83.3446 89.9513 82.3336 91.3294 81.8125 93.0776C81.7414 93.3176 81.6306 93.4633 81.3992 93.567C80.7438 93.8609 80.1147 94.2169 79.4224 94.4236C78.2841 94.7639 77.186 94.6626 76.2805 93.8709C75.0879 92.828 73.7528 92.4194 72.2033 92.689C71.8461 92.7512 71.9365 92.5062 71.9329 92.3318C71.8528 88.4922 74.7615 85.4281 78.604 85.2974C79.4628 85.268 80.2989 85.3797 80.9494 85.6161L80.9481 85.6168Z" fill="#BE153E"/>
<path d="M101.48 92.2265C105.371 93.5151 107.319 97.4557 105.956 101.284C105.73 101.921 105.37 102.484 104.961 103.02C104.813 103.213 104.72 103.253 104.515 103.048C103.516 102.045 102.318 101.56 100.881 101.705C99.4792 101.847 98.3922 101.273 97.6116 100.135C96.9293 99.14 96.2836 98.2105 96.8082 96.8065C97.3089 95.4671 96.9972 94.0256 96.4328 92.6965C96.3086 92.404 96.3277 92.2998 96.6575 92.201C98.2428 91.7243 99.9433 91.7188 101.48 92.2283L101.48 92.2265Z" fill="#BE153E"/>
<path d="M92.1648 108.242C92.4043 108.641 92.6048 109.014 92.8425 109.36C93.4423 110.24 94.2199 110.93 95.2894 111.111C98.1778 111.599 99.2851 114.781 97.6562 117.226C96.0793 119.593 93.7545 120.301 91.0349 120.008C90.9703 120.001 90.9059 119.986 90.8422 119.973C90.4271 119.885 89.9389 119.903 89.6156 119.682C89.2476 119.429 89.5939 118.94 89.559 118.552C89.494 117.829 89.3981 117.116 89.0754 116.464C88.5744 115.45 88.62 114.422 88.8603 113.357C89.0748 112.406 89.4609 111.618 90.2675 110.992C91.1579 110.302 91.6611 109.281 92.1642 108.241L92.1648 108.242Z" fill="#BE153E"/>
<path d="M79.2638 104.078C78.9157 105.599 79.0542 106.999 79.4131 108.39C79.4447 108.513 79.4664 108.657 79.4318 108.773C78.9763 110.312 78.4395 111.789 76.8997 112.63C76.0619 113.087 75.449 113.786 75.0335 114.65C74.9436 114.836 74.8452 114.924 74.6172 114.841C72.1488 113.948 70.0335 112.218 69.6202 109.278C69.4662 108.182 69.6065 107.13 70.161 106.151C71.1677 104.373 72.9762 103.719 74.847 104.522C76.114 105.065 77.3269 104.948 78.5449 104.421C78.7519 104.332 78.9525 104.228 79.2638 104.078Z" fill="#BE153E"/>
<path d="M49.0302 43.8887C50.3957 44.8447 51.7621 45.8014 53.1277 46.7574C54.178 47.4927 55.2164 48.2467 56.2804 48.9607C56.6195 49.1878 56.6234 49.3476 56.388 49.6526C55.96 50.2088 55.546 50.78 55.1798 51.3783C54.9447 51.762 54.7634 51.7084 54.4476 51.4848C52.1531 49.8629 49.8461 48.2568 47.5437 46.6462C47.4185 46.5585 47.2941 46.4714 47.1115 46.4363C47.4265 46.8872 47.7528 47.3293 48.0535 47.7895C51.0078 52.3058 50.3738 57.4195 48.118 61.206C47.9288 61.524 47.7583 61.3815 47.5666 61.273C44.3327 59.4466 42.1329 56.8125 41.3334 53.1342C40.5906 49.7131 41.3284 46.5396 43.1358 43.6014C44.4854 41.4071 46.0293 39.3746 48.2309 37.9286C52.9375 34.8385 58.9896 35.3161 63.1423 39.1115C63.4401 39.383 63.3215 39.5266 63.1407 39.7462C59.7537 43.8837 54.6083 45.4515 49.5029 43.8992C49.3597 43.8556 49.2171 43.8111 49.0754 43.7672C49.0604 43.8069 49.0449 43.8475 49.0291 43.8866L49.0302 43.8887Z" fill="#1C3C31"/>
<path d="M41.7769 32.1781C44.8964 34.2063 45.4616 38.6679 43.2276 41.7321C40.9434 44.8642 36.9687 45.8591 33.7586 43.6349C30.3509 41.2736 30.0941 36.7705 32.1619 33.8666C34.2251 30.9711 38.6499 29.8627 41.7769 32.1781Z" fill="#BE153E"/>
<path d="M20.219 30.8373C19.2501 30.1383 18.3155 29.7801 17.286 29.6604C16.9158 29.6174 16.5432 29.5908 16.1865 29.659C14.2884 30.0226 12.8758 29.2036 11.7243 27.8169C9.99505 25.7349 9.81396 22.6183 11.1516 20.2702C12.2278 18.38 13.7639 17.1271 15.8685 16.6377C17.4444 16.2712 18.9727 16.5149 20.3834 17.3365C21.2965 17.8689 22.0754 18.5506 22.4561 19.5676C22.6814 20.1706 22.762 20.8165 23.0688 21.4059C23.4982 22.2303 24.0579 22.9272 24.7777 23.5058C24.8677 23.5777 25.0312 23.6163 24.9952 23.7687C24.9612 23.9148 24.7989 23.8874 24.6859 23.9164C23.3895 24.2405 22.1958 24.7395 21.2858 25.7782C20.6627 26.49 20.3605 27.339 20.1945 28.2396C20.0451 29.0488 20.081 29.8706 20.2213 30.8376L20.219 30.8373Z" fill="#BE153E"/>
<path d="M18.8215 49.313C16.7142 47.7528 15.7702 45.7019 15.7323 43.1951C15.727 42.8387 15.802 42.6764 16.2116 42.6503C17.5133 42.5668 18.66 42.0889 19.6234 41.1854C19.9898 40.8422 20.2911 40.4431 20.5019 40.0115C21.1652 38.6559 22.3597 38.312 23.7078 38.1991C25.1998 38.0737 26.6853 38.3196 28.177 38.248C28.6086 38.2271 29.1184 38.01 29.4573 38.2705C29.7991 38.5342 29.6508 39.0842 29.7258 39.5048C29.9486 40.7381 30.418 41.8583 31.1509 42.8668C31.3378 43.1238 31.4087 43.2339 31.0057 43.3315C30.0351 43.5671 29.0768 43.8512 28.2305 44.4222C27.2196 45.1032 26.5229 46.0467 26.3303 47.2208C25.9626 49.4539 23.9076 50.5288 21.7907 50.3518C20.6833 50.2587 19.6808 49.867 18.8217 49.3145L18.8215 49.313Z" fill="#BE153E"/>
<path d="M40.6046 30.0574C38.8438 29.5043 37.149 29.5057 35.4584 30.0159C35.2378 30.0828 35.185 29.9596 35.1428 29.7846C34.8199 28.4479 34.2436 27.2065 33.7252 25.9413C33.3245 24.9657 33.028 23.9589 33.0397 22.8834C33.0454 22.3365 33.208 21.8634 33.5248 21.4147C33.9585 20.8006 34.4663 20.2372 34.7638 19.5291C35.25 18.3713 35.2364 17.1995 34.8629 16.0306C34.7329 15.6243 34.8415 15.4545 35.2129 15.3284C37.5033 14.5534 39.739 14.6527 41.7692 16.0032C43.5585 17.1941 44.643 18.8788 44.4883 21.1349C44.4118 22.2461 43.8723 23.1362 42.9085 23.7279C40.9678 24.9188 40.2911 26.6924 40.5053 28.8849C40.5406 29.2481 40.5686 29.6126 40.607 30.0578L40.6046 30.0574Z" fill="#BE153E"/>
<path d="M24.1817 35.6506C22.3154 34.0364 21.1646 31.5254 21.4559 28.4215C21.5741 27.1644 22.3044 26.3088 23.4119 25.738C26.0592 24.3723 29.9111 24.7755 32.092 26.6846C33.2288 27.6787 33.5665 29.0735 33.9001 30.4629C33.9501 30.6728 33.8185 30.7339 33.6756 30.8166C31.4697 32.0832 30.1447 33.9665 29.7279 36.4793C29.7021 36.6375 29.6629 36.7414 29.4883 36.7646C27.8115 36.9922 26.1549 37.099 24.1814 35.6491L24.1817 35.6506Z" fill="#BE153E"/>
<path d="M50.3047 32.4296C49.1587 34.0959 47.7117 35.0688 46.0156 35.7193C45.6937 35.8427 45.5995 35.7639 45.5284 35.4464C45.0944 33.5183 43.9992 32.0437 42.3688 30.9549C42.1449 30.8059 42.0304 30.646 41.997 30.3755C41.9028 29.6093 41.7364 28.8506 41.7432 28.0742C41.7542 26.7973 42.2059 25.7017 43.3057 25.0224C44.7544 24.1279 45.5968 22.8861 45.8105 21.2094C45.8597 20.823 46.0828 20.9933 46.2629 21.0448C50.2315 22.1783 52.4573 26.1357 51.3749 30.1233C51.1331 31.0146 50.7537 31.8378 50.3049 32.4311L50.3047 32.4296Z" fill="#BE153E"/>
<path d="M37.0172 51.4178C34.4621 55.005 29.7982 55.7581 26.298 53.1467C25.7156 52.7119 25.251 52.164 24.8306 51.575C24.6787 51.3618 24.6672 51.2533 24.9428 51.1078C26.2895 50.3993 27.167 49.3224 27.4726 47.8014C27.7708 46.3164 28.7044 45.3818 30.1203 44.9405C31.3582 44.5548 32.5173 44.1861 33.793 45.1693C35.01 46.1076 36.5891 46.2439 38.1327 46.0852C38.4725 46.0502 38.5734 46.1028 38.5705 46.4728C38.5581 48.2518 38.0254 49.9999 37.0155 51.4166L37.0172 51.4178Z" fill="#BE153E"/>
<path d="M23.5197 36.7923C23.0344 36.912 22.5881 36.9998 22.1568 37.1342C21.0633 37.4717 20.1088 38.0519 19.5846 39.0929C18.1683 41.9046 14.5497 42.0342 12.5547 39.5873C10.6235 37.2185 10.6322 34.6066 11.7941 31.9064C11.8222 31.8424 11.8575 31.7809 11.8914 31.7197C12.1125 31.321 12.2487 30.814 12.5788 30.5522C12.9547 30.2542 13.3476 30.7648 13.7566 30.8516C14.5195 31.0138 15.2824 31.1412 16.0545 31.0163C17.2544 30.8228 18.2951 31.1949 19.3135 31.7792C20.2215 32.3003 20.9094 32.9466 21.2963 33.9731C21.7233 35.106 22.6127 35.9462 23.5212 36.792L23.5197 36.7923Z" fill="#BE153E"/>
<path d="M31.8911 24.8397C30.4387 24.0005 28.957 23.6994 27.4151 23.6277C27.2792 23.6213 27.1245 23.5979 27.0155 23.5255C25.5798 22.5706 24.2326 21.5515 23.8568 19.7039C23.653 18.6989 23.1289 17.8481 22.3732 17.1479C22.2103 16.9965 22.1512 16.8676 22.3083 16.6597C24.0073 14.4075 26.4537 12.7829 29.6038 13.2893C30.778 13.4781 31.8146 13.9554 32.6442 14.8349C34.1508 16.4315 34.25 18.4959 32.8331 20.163C31.874 21.2922 31.6105 22.5749 31.766 23.9927C31.7918 24.2335 31.8355 24.4726 31.8911 24.8397Z" fill="#BE153E"/>
<path d="M103.001 21.887C101.743 20.9192 100.484 19.9508 99.2257 18.983C98.258 18.2386 97.3023 17.4769 96.3207 16.7523C96.0078 16.5217 96.0109 16.3695 96.2478 16.0895C96.6788 15.5786 97.0971 15.0529 97.4709 14.4994C97.711 14.1445 97.8812 14.2032 98.172 14.4294C100.286 16.0704 102.411 17.6968 104.533 19.3273C104.648 19.4161 104.763 19.5043 104.935 19.5455C104.655 19.1031 104.363 18.6686 104.097 18.2179C101.479 13.7953 102.301 8.95777 104.609 5.45205C104.802 5.1576 104.958 5.30047 105.136 5.41188C108.134 7.28749 110.115 9.8873 110.718 13.4206C111.278 16.7068 110.441 19.6943 108.596 22.4122C107.219 24.442 105.663 26.3095 103.507 27.591C98.8974 30.3295 93.1604 29.6166 89.3721 25.8286C89.1005 25.5576 89.2194 25.4261 89.4007 25.2249C92.7996 21.4337 97.7614 20.162 102.552 21.8568C102.686 21.9045 102.82 21.9529 102.953 22.0007C102.969 21.9635 102.985 21.9256 103.002 21.889L103.001 21.887Z" fill="#1C3C31"/>
<path d="M109.395 33.3302C106.514 31.2675 106.167 26.9991 108.423 24.1795C110.73 21.2975 114.554 20.5209 117.513 22.774C120.653 25.1658 120.705 29.4606 118.614 32.1347C116.528 34.8011 112.271 35.6664 109.395 33.3302Z" fill="#BE153E"/>
<path d="M129.844 35.5233C130.736 36.2296 131.61 36.6104 132.584 36.7682C132.934 36.8249 133.288 36.8662 133.63 36.8165C135.451 36.5517 136.76 37.3912 137.796 38.7596C139.352 40.814 139.391 43.7866 138.019 45.9632C136.914 47.7154 135.399 48.8416 133.376 49.2172C131.861 49.4986 130.418 49.2015 129.111 48.3596C128.265 47.8141 127.553 47.1323 127.235 46.1486C127.046 45.5654 126.997 44.9475 126.73 44.3737C126.357 43.5711 125.854 42.8842 125.194 42.303C125.112 42.2307 124.958 42.1871 124.999 42.0436C125.037 41.9061 125.191 41.9391 125.299 41.9163C126.546 41.6634 127.703 41.2397 128.613 40.2905C129.236 39.64 129.56 38.8453 129.757 37.9956C129.933 37.2322 129.934 36.4488 129.842 35.5229L129.844 35.5233Z" fill="#BE153E"/>
<path d="M131.971 17.9988C133.909 19.5731 134.719 21.5645 134.648 23.9508C134.638 24.29 134.56 24.4413 134.169 24.4486C132.927 24.4724 131.816 24.878 130.861 25.6964C130.498 26.0072 130.194 26.374 129.975 26.7756C129.286 28.0368 128.135 28.313 126.848 28.3628C125.423 28.4183 124.02 28.1209 122.598 28.1253C122.187 28.1267 121.693 28.3115 121.381 28.0492C121.068 27.7837 121.232 27.2668 121.179 26.8635C121.019 25.6808 120.621 24.5951 119.967 23.6043C119.8 23.3519 119.737 23.2441 120.125 23.1685C121.058 22.9858 121.982 22.7565 122.811 22.2495C123.802 21.6448 124.505 20.777 124.738 19.6683C125.184 17.5597 127.185 16.625 129.191 16.8837C130.24 17.0196 131.177 17.4351 131.971 17.9974L131.971 17.9988Z" fill="#BE153E"/>
<path d="M110.419 35.3912C112.07 35.9927 113.683 36.0637 115.313 35.6506C115.525 35.5964 115.57 35.7158 115.603 35.8841C115.853 37.1696 116.348 38.3751 116.787 39.6008C117.127 40.546 117.366 41.5164 117.309 42.5391C117.28 43.0591 117.105 43.5022 116.785 43.9156C116.346 44.4812 115.839 44.9955 115.525 45.6564C115.013 46.737 114.976 47.8523 115.282 48.9802C115.388 49.3723 115.277 49.5292 114.919 49.6333C112.707 50.2727 110.584 50.0828 108.711 48.7112C107.059 47.5019 106.1 45.8529 106.343 43.7134C106.463 42.6595 107.015 41.8358 107.957 41.3141C109.854 40.264 110.573 38.6058 110.463 36.5109C110.445 36.1639 110.434 35.8159 110.417 35.3908L110.419 35.3912Z" fill="#BE153E"/>
<path d="M126.286 30.7777C127.993 32.393 128.98 34.8309 128.57 37.7711C128.404 38.962 127.673 39.7447 126.595 40.2405C124.018 41.4265 120.371 40.8784 118.378 38.969C117.339 37.9748 117.077 36.6335 116.819 35.2976C116.781 35.0957 116.909 35.0432 117.048 34.9706C119.201 33.86 120.542 32.125 121.045 29.7524C121.077 29.603 121.118 29.5059 121.286 29.4912C122.89 29.3463 124.471 29.3155 126.286 30.7791L126.286 30.7777Z" fill="#BE153E"/>
<path d="M101.294 32.7287C102.456 31.1925 103.874 30.3288 105.515 29.7825C105.827 29.6788 105.913 29.7578 105.967 30.0629C106.298 31.9157 107.276 33.3653 108.781 34.4706C108.988 34.6219 109.09 34.779 109.11 35.0377C109.167 35.7706 109.293 36.4995 109.253 37.2378C109.188 38.452 108.711 39.475 107.636 40.0742C106.22 40.8632 105.365 42.0085 105.09 43.5945C105.027 43.96 104.822 43.7884 104.653 43.7317C100.926 42.4839 98.9778 38.6241 100.178 34.877C100.446 34.0394 100.842 33.2725 101.294 32.7273L101.294 32.7287Z" fill="#BE153E"/>
<path d="M114.754 15.2278C117.338 11.9245 121.807 11.4074 125.025 14.0411C125.56 14.4796 125.979 15.0207 126.354 15.599C126.489 15.8083 126.495 15.912 126.227 16.0387C124.915 16.6551 124.035 17.642 123.679 19.076C123.332 20.4759 122.404 21.3251 121.038 21.6844C119.844 21.9984 118.726 22.2996 117.554 21.3098C116.436 20.3652 114.94 20.1681 113.465 20.2531C113.14 20.2719 113.046 20.2175 113.065 19.8657C113.153 18.1739 113.734 16.5336 114.755 15.2291L114.754 15.2278Z" fill="#BE153E"/>
<path d="M126.961 29.7248C127.428 29.6317 127.856 29.5672 128.272 29.4578C129.327 29.1835 130.26 28.6723 130.803 27.7043C132.27 25.0901 135.718 25.1214 137.512 27.5344C139.247 29.8704 139.128 32.3546 137.907 34.8737C137.877 34.9334 137.841 34.9904 137.806 35.0472C137.579 35.417 137.428 35.8935 137.103 36.1285C136.732 36.3959 136.38 35.8934 135.995 35.7933C135.276 35.6064 134.556 35.4527 133.816 35.5384C132.666 35.6712 131.692 35.2728 130.748 34.6735C129.907 34.1389 129.28 33.4947 128.956 32.5017C128.598 31.4057 127.788 30.5685 126.96 29.725L126.961 29.7248Z" fill="#BE153E"/>
<path d="M118.491 40.7225C119.837 41.5829 121.233 41.9327 122.697 42.0668C122.826 42.0786 122.972 42.1075 123.073 42.181C124.398 43.1508 125.636 44.1778 125.915 45.9514C126.065 46.9162 126.528 47.748 127.217 48.4464C127.365 48.5974 127.416 48.7226 127.258 48.9136C125.545 50.9835 123.148 52.4245 120.173 51.8081C119.064 51.5783 118.099 51.08 117.347 50.2079C115.982 48.6247 115.976 46.6566 117.395 45.1312C118.356 44.098 118.661 42.889 118.574 41.5336C118.56 41.3035 118.528 41.0742 118.491 40.7225Z" fill="#BE153E"/>
</svg>
