<svg width="69" height="82" viewBox="0 0 69 82" fill="none" xmlns="http://www.w3.org/2000/svg">
<path d="M38.0805 22.9696C39.0294 20.2306 39.9789 17.4899 40.9278 14.7509C41.6576 12.6443 42.4244 10.5485 43.1121 8.42917C43.3305 7.75392 43.5959 7.67122 44.218 7.91974C45.3521 8.37084 46.5045 8.79143 47.6794 9.11893C48.4331 9.32957 48.4298 9.65829 48.206 10.2929C46.5857 14.9026 44.9977 19.5255 43.4 24.1431C43.3129 24.3943 43.2265 24.6437 43.2546 24.9659C43.8588 24.2244 44.4429 23.4682 45.0695 22.7461C51.2167 15.6552 60.0712 14.2813 67.478 16.2516C68.0999 16.4166 67.9427 16.7696 67.8525 17.142C66.3373 23.42 62.9789 28.3531 57.2075 31.4413C51.8393 34.3122 46.1804 34.5889 40.4058 32.9648C36.0934 31.7521 31.959 30.1374 28.4926 27.1436C21.084 20.7427 19.0017 10.3932 23.3727 1.64102C23.6851 1.01383 23.9816 1.14372 24.435 1.34155C32.9673 5.03679 38.0388 12.8963 37.873 22.1739C37.8682 22.4342 37.8616 22.6939 37.8557 22.9519C37.9293 22.9579 38.0046 22.9646 38.0775 22.9724L38.0805 22.9696Z" fill="#1C3C31"/>
<path d="M21.9595 40.6788C23.8667 34.4959 31.0596 31.4267 37.2481 33.7046C43.5739 36.0339 47.1299 42.208 44.938 48.6357C42.6109 55.459 35.2018 58.0322 29.3606 55.9562C23.5356 53.8838 19.5756 47.0109 21.9595 40.6788Z" fill="#BE153E"/>
<path d="M61.5477 70.9108C59.9413 75.178 56.9605 77.7331 52.7861 78.9898C52.1925 79.1684 51.8852 79.1201 51.6467 78.4476C50.8873 76.3101 49.5422 74.6198 47.5725 73.4387C46.824 72.9892 46.0131 72.6753 45.1909 72.5282C42.608 72.0641 41.464 70.23 40.6335 68.0291C39.7135 65.5934 39.4177 62.9917 38.5879 60.531C38.3475 59.819 37.7417 59.0697 38.0159 58.3789C38.2943 57.6817 39.2848 57.6679 39.9526 57.3423C41.9092 56.3825 43.5592 55.0642 44.8972 53.3584C45.2381 52.9235 45.3885 52.7525 45.7435 53.38C46.5996 54.8912 47.5309 56.3587 48.8888 57.5024C50.509 58.869 52.4187 59.5849 54.474 59.3482C58.3839 58.9001 61.1599 61.8255 61.8717 65.4503C62.2431 67.3466 62.0652 69.2098 61.5501 70.9096L61.5477 70.9108Z" fill="#BE153E"/>
<path d="M36.1383 68.4401C34.327 72.3297 30.6751 75.4498 25.3453 76.4401C23.1865 76.8409 21.4079 76.0268 19.9258 74.4462C16.3817 70.6687 15.2223 64.0345 17.3771 59.478C18.4986 57.1035 20.6706 55.8748 22.8355 54.6554C23.163 54.472 23.3277 54.6629 23.5341 54.8625C26.7025 57.9491 30.4832 59.2685 34.8842 58.7694C35.1611 58.7373 35.3534 58.7535 35.4754 59.0344C36.6544 61.7306 37.6214 64.4503 36.136 68.4412L36.1383 68.4401Z" fill="#BE153E"/>
<path d="M18.3107 26.2841C21.6432 27.4076 23.9592 29.3645 25.8545 31.8916C26.2142 32.3713 26.1272 32.5663 25.63 32.8364C22.6118 34.4801 20.6669 37.0138 19.6222 40.259C19.4795 40.7043 19.2665 40.972 18.83 41.1565C17.5935 41.6789 16.4037 42.3184 15.1018 42.6765C12.9611 43.2659 10.9136 43.032 9.25393 41.5159C7.06825 39.5188 4.59039 38.7011 1.68432 39.1419C1.01458 39.2436 1.19329 38.7893 1.19365 38.4635C1.20031 31.2864 6.75951 25.6799 13.9441 25.5921C15.5498 25.5721 17.1073 25.8148 18.3131 26.283L18.3107 26.2841Z" fill="#BE153E"/>
<path d="M56.3914 39.4763C63.6074 42.0422 67.087 49.4841 64.3857 56.5813C63.9357 57.7624 63.2405 58.8002 62.4554 59.7836C62.1712 60.1392 61.9953 60.2102 61.6207 59.8185C59.7947 57.9033 57.5759 56.9483 54.8864 57.1614C52.2608 57.3694 50.2533 56.2529 48.8412 54.0949C47.6069 52.2082 46.4384 50.4451 47.4756 47.8434C48.4655 45.3612 47.9418 42.6553 46.9415 40.1492C46.7213 39.5975 46.7613 39.4037 47.3814 39.2324C50.3627 38.4064 53.5401 38.4652 56.3902 39.4798L56.3914 39.4763Z" fill="#BE153E"/>
</svg>
