<svg width="150" height="166" viewBox="0 0 150 166" fill="none" xmlns="http://www.w3.org/2000/svg">
<path d="M89.6413 40.9923C91.3995 37.19 93.1587 33.3854 94.9169 29.5832C96.2692 26.6588 97.673 23.7553 98.9665 20.8066C99.3776 19.867 99.7711 19.7863 100.63 20.233C102.196 21.0447 103.793 21.8151 105.435 22.4549C106.488 22.8661 106.437 23.3384 106.024 24.2187C103.031 30.6146 100.083 37.0339 97.122 43.4442C96.9607 43.7929 96.8006 44.1393 96.7947 44.6065C97.7701 43.6272 98.7187 42.6237 99.7235 41.6755C109.582 32.3623 122.512 31.6592 132.88 35.5571C133.75 35.8838 133.474 36.3688 133.29 36.8912C130.209 45.7011 124.671 52.3122 115.928 55.9234C107.796 59.2801 99.6189 58.8647 91.5486 55.6993C85.5217 53.3358 79.8087 50.4196 75.2543 45.6164C65.5208 35.3473 64.014 20.1657 71.5573 8.20843C72.0966 7.35145 72.5043 7.58084 73.1278 7.93049C84.866 14.4704 91.0292 26.5011 89.4573 39.8183C89.413 40.1919 89.3663 40.5644 89.3207 40.9345C89.4256 40.9538 89.5329 40.9742 89.6367 40.996L89.6413 40.9923Z" fill="#1C3C31"/>
<path d="M63.9116 64.1374C67.5428 55.5206 78.3272 52.141 86.8986 56.3059C95.6602 60.5646 99.8864 69.9538 95.8106 78.8818C91.4837 88.3591 80.4597 90.9944 72.3586 87.1697C64.2802 83.3525 59.5736 72.9003 63.9116 64.1374Z" fill="#BE153E"/>
<path d="M70.1831 118.039C68.8846 120.746 68.4136 123.217 68.5748 125.816C68.6329 126.751 68.7326 127.685 69.0597 128.537C70.8021 133.07 69.4037 136.928 66.4853 140.392C62.1037 145.594 54.4753 147.426 48.0732 145.16C42.9199 143.338 39.1387 140.095 36.9936 135.107C35.387 131.371 35.3109 127.483 36.7166 123.629C37.6279 121.134 38.9682 118.905 41.3144 117.511C42.7059 116.686 44.2677 116.2 45.5892 115.179C47.4377 113.751 48.9129 112.057 50.0243 110.02C50.1623 109.765 50.185 109.344 50.5781 109.365C50.9544 109.384 50.9588 109.798 51.0807 110.064C52.4581 113.127 54.2226 115.858 57.1959 117.647C59.2332 118.873 61.4673 119.243 63.7687 119.253C65.8365 119.264 67.8534 118.81 70.1829 118.033L70.1831 118.039Z" fill="#BE153E"/>
<path d="M116.501 113.306C113.578 119.211 108.924 122.457 102.741 123.664C101.862 123.835 101.427 123.722 101.18 122.72C100.396 119.537 98.7043 116.913 96.0416 114.932C95.0299 114.178 93.9089 113.61 92.7477 113.28C89.1002 112.242 87.7189 109.44 86.841 106.156C85.8681 102.521 85.8166 98.7375 84.977 95.0798C84.7337 94.0215 83.9702 92.8569 84.4639 91.9029C84.9644 90.9404 86.3908 91.0628 87.3977 90.6907C90.3492 89.5917 92.9114 87.9332 95.0806 85.6726C95.6332 85.0962 95.8741 84.8719 96.2944 85.8252C97.3082 88.1214 98.4366 90.3654 100.225 92.2052C102.358 94.4032 105.001 95.7072 107.991 95.6621C113.678 95.5797 117.249 100.185 117.752 105.5C118.013 108.28 117.49 110.934 116.505 113.304L116.501 113.306Z" fill="#BE153E"/>
<path d="M59.1898 67.9799C58.6036 72.5809 59.3599 76.7722 61.3727 80.7272C61.6363 81.2431 61.355 81.4284 60.9409 81.6105C57.7779 83.0029 54.9634 84.9797 52.0643 86.8239C49.8293 88.2484 47.4706 89.4288 44.8051 89.8777C43.45 90.1064 42.2076 89.9144 40.9569 89.3302C39.2455 88.5301 37.6262 87.5244 35.7427 87.103C32.6631 86.4146 29.7708 86.9688 27.0455 88.4118C26.0983 88.9138 25.63 88.7206 25.1532 87.8579C22.219 82.5369 21.4715 76.963 23.9103 71.3416C26.0612 66.387 29.7465 62.9562 35.3954 62.3368C38.1779 62.0325 40.6191 62.9716 42.5107 65.0928C46.3185 69.364 51.0057 70.2499 56.3337 68.7464C57.2164 68.4977 58.1056 68.2667 59.1896 67.9739L59.1898 67.9799Z" fill="#BE153E"/>
<path d="M80.3137 106.1C77.1501 111.433 71.4503 115.395 63.6438 116.053C60.4819 116.319 58.0413 114.892 56.1373 112.406C51.5838 106.465 50.8701 96.7587 54.6236 90.5163C56.5776 87.2629 59.8774 85.8083 63.1658 84.3659C63.663 84.1492 63.8725 84.4475 64.1406 84.7641C68.2531 89.6579 73.4999 92.0987 79.9002 92.0135C80.3031 92.0071 80.5773 92.058 80.7123 92.4795C82.0201 96.5259 83.0199 100.576 80.3102 106.101L80.3137 106.1Z" fill="#BE153E"/>
<path d="M60.7327 42.9181C65.3632 45.0126 68.4123 48.1594 70.7746 52.0658C71.2228 52.8073 71.0698 53.0751 70.316 53.3921C65.7396 55.322 62.5787 58.6857 60.61 63.2021C60.3408 63.822 59.996 64.1764 59.3419 64.3789C57.4887 64.9524 55.6859 65.7009 53.7624 66.0288C50.5994 66.5687 47.6887 65.938 45.5201 63.5195C42.6641 60.3335 39.2185 58.8016 34.9763 59.0177C33.9986 59.0677 34.3209 58.4402 34.3682 57.9717C35.4093 47.6522 44.2091 40.389 54.553 41.2954C56.8649 41.4975 59.0696 42.0703 60.7362 42.9168L60.7327 42.9181Z" fill="#BE153E"/>
<path d="M113.605 67.3629C123.613 72.0897 127.547 83.291 122.643 93.1085C121.826 94.7422 120.677 96.1346 119.407 97.436C118.947 97.9064 118.684 97.9832 118.201 97.3661C115.851 94.3496 112.797 92.6575 108.899 92.5774C105.094 92.4992 102.368 90.605 100.647 87.2991C99.1436 84.4085 97.7167 81.7053 99.582 78.1132C101.362 74.6861 100.998 70.7199 99.9199 66.9723C99.6825 66.1473 99.7678 65.8744 100.684 65.7172C105.09 64.9579 109.651 65.4992 113.603 67.3677L113.605 67.3629Z" fill="#BE153E"/>
<path d="M83.4134 107.24C83.925 108.387 84.3405 109.452 84.8644 110.459C86.1848 113.014 88.0439 115.117 90.8517 115.951C98.4354 118.206 100.363 127.098 95.1968 133.12C90.1954 138.949 83.7313 140.087 76.5364 138.413C76.3656 138.371 76.1978 138.311 76.0313 138.255C74.9471 137.885 73.6325 137.773 72.8382 137.073C71.9342 136.276 73.0226 135.077 73.0558 134.027C73.1181 132.068 73.0943 130.124 72.4425 128.27C71.431 125.388 71.8892 122.649 72.8819 119.87C73.7677 117.393 75.0608 115.404 77.4278 113.991C80.0404 112.432 81.7235 109.859 83.4121 107.236L83.4134 107.24Z" fill="#BE153E"/>
<path d="M50.1725 91.857C48.7417 95.8223 48.655 99.6209 49.1625 103.467C49.2072 103.805 49.218 104.199 49.0874 104.5C47.3629 108.476 45.4406 112.26 41.0378 114.011C38.6425 114.961 36.7708 116.635 35.3745 118.815C35.0723 119.286 34.7798 119.489 34.1957 119.193C27.8706 115.991 22.7655 110.661 22.6191 102.645C22.5646 99.6566 23.2848 96.8807 25.0916 94.4379C28.3715 90.0024 33.4337 88.8402 38.1865 91.6042C41.4054 93.475 44.6952 93.5571 48.133 92.5429C48.717 92.3721 49.289 92.1579 50.1725 91.857Z" fill="#BE153E"/>
</svg>
