<svg width="220" height="222" viewBox="0 0 220 222" fill="none" xmlns="http://www.w3.org/2000/svg">
<ellipse cx="56.2196" cy="91.4874" rx="19.692" ry="19.4458" transform="rotate(-19.7771 56.2196 91.4874)" fill="#BE153E"/>
<ellipse cx="92.1024" cy="52.5968" rx="19.692" ry="19.4458" transform="rotate(-19.7771 92.1024 52.5968)" fill="#004227"/>
<circle cx="54.0661" cy="122.61" r="19.4458" transform="rotate(-19.7771 54.0661 122.61)" fill="#BE153E"/>
<circle cx="105.808" cy="164.688" r="19.4458" transform="rotate(-19.7771 105.808 164.688)" fill="#BE153E"/>
<circle cx="127.308" cy="151.723" r="19.4458" transform="rotate(-19.7771 127.308 151.723)" fill="#BE153E"/>
<circle cx="132.136" cy="165.157" r="19.4458" transform="rotate(-19.7771 132.136 165.157)" fill="#BE153E"/>
<circle cx="139.379" cy="141.633" r="19.4458" transform="rotate(-19.7771 139.379 141.633)" fill="#BE153E"/>
<circle cx="81.4723" cy="82.4105" r="19.4458" transform="rotate(-19.7771 81.4723 82.4105)" fill="#BE153E"/>
<circle cx="79.5348" cy="113.453" r="19.4458" transform="rotate(-19.7771 79.5348 113.453)" fill="#BE153E"/>
<ellipse cx="76.868" cy="148.933" rx="19.692" ry="19.4458" transform="rotate(-19.7771 76.868 148.933)" fill="#BE153E"/>
<circle cx="106.941" cy="73.2504" r="19.4458" transform="rotate(-19.7771 106.941 73.2504)" fill="#BE153E"/>
<ellipse cx="104.79" cy="104.366" rx="19.692" ry="19.4458" transform="rotate(-19.7771 104.79 104.366)" fill="#BE153E"/>
<ellipse cx="95.7353" cy="136.662" rx="19.4458" ry="19.692" transform="rotate(-19.7771 95.7353 136.662)" fill="#BE153E"/>
<circle cx="132.425" cy="64.0863" r="19.4458" transform="rotate(-19.7771 132.425 64.0863)" fill="#BE153E"/>
<circle cx="130.043" cy="95.2855" r="19.4458" transform="rotate(-19.7771 130.043 95.2855)" fill="#BE153E"/>
<ellipse cx="127.845" cy="124.851" rx="19.692" ry="19.4458" transform="rotate(-19.7771 127.845 124.851)" fill="#BE153E"/>
<circle cx="155.511" cy="86.1293" r="19.4458" transform="rotate(-19.7771 155.511 86.1293)" fill="#BE153E"/>
<circle cx="159.779" cy="115.172" r="19.692" transform="rotate(-19.7771 159.779 115.172)" fill="#BE153E"/>
</svg>
