<svg width="471" height="159" viewBox="0 0 471 159" fill="none" xmlns="http://www.w3.org/2000/svg">
<path d="M180.662 102.562C178.208 102.562 176.269 101.826 174.846 100.354C173.422 98.8325 172.662 96.8693 172.563 94.4644C172.367 90.2926 171.312 87.3478 169.398 85.63C167.533 83.8632 165.03 82.9798 161.889 82.9798H160.416V94.7588C160.416 97.311 159.729 99.2496 158.355 100.575C156.981 101.9 155.165 102.562 152.907 102.562C150.502 102.562 148.613 101.9 147.238 100.575C145.864 99.2496 145.177 97.311 145.177 94.7588V84.3785C145.177 79.1761 145.938 75.2252 147.459 72.5258C149.03 69.8264 151.018 67.8878 153.422 66.7099L153.054 65.3111H151.876C149.619 65.3111 147.827 64.5995 146.502 63.1761C145.226 61.7038 144.539 59.716 144.441 57.213C144.392 54.759 145.054 52.7713 146.429 51.2498C147.803 49.7283 149.619 48.9676 151.876 48.9676H170.649C175.901 48.9676 180.146 50.2437 183.385 52.7958C186.625 55.348 188.244 59.4216 188.244 65.0166C188.244 67.9123 187.754 70.3418 186.772 72.3049C185.79 74.219 184.539 75.6914 183.017 76.7221C181.496 77.7528 179.901 78.3663 178.232 78.5626V79.5196C181.275 80.2558 183.778 81.8755 185.741 84.3785C187.754 86.8816 188.76 90.2435 188.76 94.4644C188.76 97.1637 188.024 99.2005 186.551 100.575C185.128 101.9 183.165 102.562 180.662 102.562ZM160.048 71.716C160.048 72.7957 160.244 73.5074 160.637 73.851C161.03 74.1945 161.766 74.3663 162.846 74.3663H169.766C171.827 74.3663 173.324 73.9 174.257 72.9675C175.189 72.035 175.655 70.7344 175.655 69.0657C175.655 67.3479 175.189 66.0228 174.257 65.0902C173.324 64.1577 171.827 63.6915 169.766 63.6915H162.846C161.766 63.6915 161.03 63.8387 160.637 64.1332C160.244 64.4277 160.048 65.1393 160.048 66.2682V71.716ZM210.078 102.415C207.673 102.415 205.367 102.194 203.158 101.753C200.999 101.311 199.084 100.477 197.416 99.2496C195.796 97.9736 194.495 96.1576 193.514 93.8018C192.581 91.3969 192.115 88.2558 192.115 84.3785C192.115 80.8939 192.581 77.9 193.514 75.397C194.446 72.8939 195.551 70.9062 196.827 69.4338C198.152 67.9614 199.354 67.0534 200.434 66.7099L200.066 65.3111H198.814C196.557 65.3111 194.765 64.5995 193.44 63.1761C192.164 61.7038 191.502 59.716 191.453 57.213C191.403 54.759 192.042 52.7958 193.367 51.3234C194.741 49.851 196.557 49.1148 198.814 49.1148H225.244C230.495 49.1148 233.121 51.5688 233.121 56.4768C233.121 58.6854 232.483 60.4522 231.207 61.7774C229.931 63.1025 227.943 63.7651 225.244 63.7651H210.005C208.189 63.7651 207.281 64.8203 207.281 66.9307V72.4522C209.735 71.9123 212.287 71.2743 214.937 70.5381C217.637 69.8019 220.189 69.4338 222.594 69.4338C224.9 69.4338 226.618 69.9491 227.747 70.9798C228.925 71.9614 229.514 73.3111 229.514 75.0289C229.514 76.7957 228.925 78.1945 227.747 79.2252C226.618 80.2068 224.9 80.7221 222.594 80.7712C220.189 80.8202 217.637 80.4767 214.937 79.7405C212.238 79.0043 209.661 78.3663 207.207 77.8264V87.4705C207.207 88.403 207.452 89.0656 207.943 89.4583C208.483 89.8018 209.318 89.6546 210.446 89.0165C212.9 87.5932 215.305 86.4644 217.661 85.63C220.017 84.7466 222.324 84.3049 224.581 84.3049C227.771 84.3049 230.176 85.1393 231.796 86.808C233.465 88.4767 234.299 90.6607 234.299 93.3601C234.299 96.2558 233.416 98.4889 231.649 100.059C229.931 101.63 227.133 102.415 223.256 102.415H210.078ZM260.011 102.783C257.263 102.783 254.49 102.513 251.692 101.974C248.944 101.385 246.392 100.55 244.036 99.4705C241.729 98.3417 239.864 96.992 238.441 95.4214C237.017 93.8018 236.306 91.9368 236.306 89.8264C236.306 87.127 237.165 84.9675 238.882 83.3478C240.6 81.7282 242.612 80.9675 244.919 81.0656C246.735 81.1147 248.551 81.5074 250.367 82.2436C252.183 82.9307 254.023 83.6178 255.888 84.3049C257.803 84.992 259.717 85.3356 261.631 85.3356C263.545 85.3356 264.87 85.0902 265.606 84.5994C266.342 84.1086 266.711 83.446 266.711 82.6117C266.711 81.6301 266.195 80.8202 265.165 80.1822C264.134 79.5442 262.833 79.0534 261.263 78.7098L257.655 77.8264C253.925 76.943 250.588 75.9614 247.643 74.8816C244.698 73.7528 242.367 72.2804 240.649 70.4645C238.981 68.5994 238.146 66.1209 238.146 63.0289C238.146 59.6424 239.079 56.894 240.944 54.7835C242.809 52.624 245.336 51.0535 248.527 50.0719C251.717 49.0903 255.275 48.5995 259.201 48.5995C263.226 48.5995 266.76 49.0167 269.803 49.851C272.845 50.6854 275.201 51.8878 276.87 53.4584C278.588 55.0289 279.447 56.943 279.447 59.2007C279.447 61.6056 278.784 63.4952 277.459 64.8694C276.183 66.1945 274.465 66.8571 272.306 66.8571C270.882 66.8571 269.385 66.6117 267.815 66.1209C266.293 65.6301 264.674 65.1639 262.956 64.7222C261.287 64.2314 259.496 63.986 257.582 63.986C255.864 63.986 254.563 64.2559 253.68 64.7958C252.796 65.2866 252.355 65.9491 252.355 66.7835C252.355 67.8142 252.944 68.5749 254.122 69.0657C255.3 69.5565 257.238 70.1454 259.938 70.8326L264.06 71.7896C267.447 72.624 270.416 73.6301 272.968 74.808C275.52 75.9859 277.508 77.5319 278.931 79.446C280.355 81.3601 281.066 83.8632 281.066 86.9552C281.066 90.6852 280.183 93.7282 278.416 96.084C276.649 98.3907 274.195 100.084 271.054 101.164C267.913 102.243 264.232 102.783 260.011 102.783ZM290.621 65.3111C288.167 65.3111 286.155 64.5995 284.584 63.1761C283.063 61.7528 282.302 59.7897 282.302 57.2866C282.302 54.8326 282.989 52.8694 284.364 51.397C285.787 49.8756 287.873 49.1148 290.621 49.1148H322.351C325.1 49.1148 327.161 49.8756 328.535 51.397C329.959 52.8694 330.67 54.8326 330.67 57.2866C330.67 59.7897 329.885 61.7528 328.314 63.1761C326.793 64.5995 324.805 65.3111 322.351 65.3111C320.683 65.3111 319.333 65.1393 318.302 64.7958C317.321 64.4031 316.511 63.9614 315.873 63.4706C315.235 62.9307 314.621 62.489 314.032 62.1455C313.443 61.7528 312.707 61.5565 311.824 61.5565L311.161 62.8817C311.357 63.3234 311.701 63.9614 312.192 64.7958C312.683 65.581 313.149 66.7344 313.591 68.2559C314.032 69.7283 314.253 71.7405 314.253 74.2927V95.5687C314.253 97.5809 313.492 99.2496 311.971 100.575C310.498 101.9 308.683 102.562 306.523 102.562C304.314 102.562 302.449 101.9 300.928 100.575C299.456 99.2496 298.719 97.5809 298.719 95.5687V74.2927C298.719 71.7405 298.94 69.7283 299.382 68.2559C299.824 66.7344 300.29 65.581 300.781 64.7958C301.321 63.9614 301.689 63.3234 301.885 62.8817L301.149 61.5565C300.265 61.5565 299.529 61.7528 298.94 62.1455C298.351 62.489 297.738 62.9307 297.1 63.4706C296.462 63.9614 295.652 64.4031 294.67 64.7958C293.689 65.1393 292.339 65.3111 290.621 65.3111ZM329.141 102.562C325.853 102.072 323.718 100.575 322.736 98.0717C321.754 95.5196 321.951 92.3049 323.325 88.4276L333.043 60.8203C333.926 58.2682 334.932 56.0841 336.061 54.2682C337.239 52.4523 338.687 51.0535 340.405 50.0719C342.172 49.0903 344.356 48.5995 346.957 48.5995C350.883 48.5995 353.828 49.6793 355.791 51.8388C357.803 53.9983 359.472 56.9921 360.797 60.8203L370.441 88.4276C371.816 92.3049 372.061 95.5196 371.178 98.0717C370.343 100.575 368.257 102.072 364.92 102.562C362.221 102.906 359.865 102.587 357.852 101.605C355.889 100.624 354.711 99.0288 354.319 96.8202C354.024 95.3478 353.975 94.1208 354.171 93.1392C354.417 92.1576 354.638 91.3724 354.834 90.7834C354.981 90.2926 354.981 89.8264 354.834 89.3846C354.736 88.8938 354.368 88.6484 353.73 88.6484H340.037C339.399 88.6484 339.006 88.8938 338.859 89.3846C338.76 89.8264 338.81 90.2926 339.006 90.7834C339.202 91.3724 339.399 92.1576 339.595 93.1392C339.791 94.1208 339.767 95.3478 339.521 96.8202C339.129 99.0288 337.975 100.624 336.061 101.605C334.147 102.587 331.84 102.906 329.141 102.562ZM352.331 78.3417L348.503 66.3418C348.405 65.851 348.233 65.4829 347.987 65.2375C347.791 64.943 347.448 64.7958 346.957 64.7958C346.466 64.7958 346.098 64.943 345.852 65.2375C345.656 65.4829 345.484 65.851 345.337 66.3418L341.583 78.3417H352.331ZM410.506 102.562C408.052 102.562 406.114 101.826 404.69 100.354C403.267 98.8325 402.506 96.8693 402.408 94.4644C402.212 90.2926 401.157 87.3478 399.243 85.63C397.378 83.8632 394.875 82.9798 391.733 82.9798H390.261V94.7588C390.261 97.311 389.574 99.2496 388.2 100.575C386.825 101.9 385.01 102.562 382.752 102.562C380.347 102.562 378.457 101.9 377.083 100.575C375.709 99.2496 375.022 97.311 375.022 94.7588V84.3785C375.022 79.1761 375.783 75.2252 377.304 72.5258C378.875 69.8264 380.862 67.8878 383.267 66.7099L382.899 65.3111H381.721C379.464 65.3111 377.672 64.5995 376.347 63.1761C375.071 61.7038 374.384 59.716 374.286 57.213C374.237 54.759 374.899 52.7713 376.273 51.2498C377.648 49.7283 379.464 48.9676 381.721 48.9676H400.494C405.746 48.9676 409.991 50.2437 413.23 52.7958C416.47 55.348 418.089 59.4216 418.089 65.0166C418.089 67.9123 417.598 70.3418 416.617 72.3049C415.635 74.219 414.384 75.6914 412.862 76.7221C411.341 77.7528 409.746 78.3663 408.077 78.5626V79.5196C411.12 80.2558 413.623 81.8755 415.586 84.3785C417.598 86.8816 418.605 90.2435 418.605 94.4644C418.605 97.1637 417.868 99.2005 416.396 100.575C414.973 101.9 413.009 102.562 410.506 102.562ZM389.893 71.716C389.893 72.7957 390.089 73.5074 390.482 73.851C390.875 74.1945 391.611 74.3663 392.69 74.3663H399.611C401.672 74.3663 403.169 73.9 404.101 72.9675C405.034 72.035 405.5 70.7344 405.5 69.0657C405.5 67.3479 405.034 66.0228 404.101 65.0902C403.169 64.1577 401.672 63.6915 399.611 63.6915H392.69C391.611 63.6915 390.875 63.8387 390.482 64.1332C390.089 64.4277 389.893 65.1393 389.893 66.2682V71.716ZM428.801 65.3111C426.347 65.3111 424.335 64.5995 422.765 63.1761C421.243 61.7528 420.482 59.7897 420.482 57.2866C420.482 54.8326 421.169 52.8694 422.544 51.397C423.967 49.8756 426.053 49.1148 428.801 49.1148H460.531C463.28 49.1148 465.341 49.8756 466.715 51.397C468.139 52.8694 468.85 54.8326 468.85 57.2866C468.85 59.7897 468.065 61.7528 466.494 63.1761C464.973 64.5995 462.985 65.3111 460.531 65.3111C458.863 65.3111 457.513 65.1393 456.482 64.7958C455.501 64.4031 454.691 63.9614 454.053 63.4706C453.415 62.9307 452.801 62.489 452.212 62.1455C451.623 61.7528 450.887 61.5565 450.004 61.5565L449.341 62.8817C449.537 63.3234 449.881 63.9614 450.372 64.7958C450.863 65.581 451.329 66.7344 451.771 68.2559C452.212 69.7283 452.433 71.7405 452.433 74.2927V95.5687C452.433 97.5809 451.672 99.2496 450.151 100.575C448.679 101.9 446.863 102.562 444.703 102.562C442.495 102.562 440.63 101.9 439.108 100.575C437.636 99.2496 436.899 97.5809 436.899 95.5687V74.2927C436.899 71.7405 437.12 69.7283 437.562 68.2559C438.004 66.7344 438.47 65.581 438.961 64.7958C439.501 63.9614 439.869 63.3234 440.065 62.8817L439.329 61.5565C438.445 61.5565 437.709 61.7528 437.12 62.1455C436.531 62.489 435.918 62.9307 435.28 63.4706C434.642 63.9614 433.832 64.4031 432.85 64.7958C431.869 65.1393 430.519 65.3111 428.801 65.3111Z" fill="#004227"/>
<ellipse cx="30.8747" cy="67.9876" rx="13.2007" ry="13.0357" transform="rotate(-37.2503 30.8747 67.9876)" fill="#004227"/>
<circle cx="35.7668" cy="88.314" r="13.0357" transform="rotate(-37.2503 35.7668 88.314)" fill="#004227"/>
<circle cx="77.3215" cy="104.806" r="13.0357" transform="rotate(-37.2503 77.3215 104.806)" fill="#004227"/>
<circle cx="88.4621" cy="92.189" r="13.0357" transform="rotate(-37.2503 88.4621 92.189)" fill="#004227"/>
<circle cx="94.2512" cy="99.8062" r="13.0357" transform="rotate(-37.2503 94.2512 99.8062)" fill="#004227"/>
<circle cx="126.118" cy="105.134" r="13.0357" transform="rotate(-37.2503 126.118 105.134)" fill="#004227"/>
<circle cx="45.1965" cy="57.1031" r="13.0357" transform="rotate(-37.2503 45.1965 57.1031)" fill="#004227"/>
<circle cx="50.2121" cy="77.3297" r="13.0357" transform="rotate(-37.2503 50.2121 77.3297)" fill="#004227"/>
<ellipse cx="55.6482" cy="100.558" rx="13.2007" ry="13.0357" transform="rotate(-37.2503 55.6482 100.558)" fill="#004227"/>
<circle cx="59.6418" cy="46.1109" r="13.0357" transform="rotate(-37.2503 59.6418 46.1109)" fill="#004227"/>
<ellipse cx="64.531" cy="66.4485" rx="13.2007" ry="13.0357" transform="rotate(-37.2503 64.531 66.4485)" fill="#004227"/>
<ellipse cx="65.2417" cy="88.9141" rx="13.0357" ry="13.2007" transform="rotate(-37.2503 65.2417 88.9141)" fill="#004227"/>
<circle cx="74.0871" cy="35.1265" r="13.0357" transform="rotate(-37.2503 74.0871 35.1265)" fill="#004227"/>
<circle cx="78.845" cy="55.5562" r="13.0357" transform="rotate(-37.2503 78.845 55.5562)" fill="#004227"/>
<ellipse cx="83.3982" cy="74.8938" rx="13.2007" ry="13.0357" transform="rotate(-37.2503 83.3982 74.8938)" fill="#004227"/>
<circle cx="93.2903" cy="44.5718" r="13.0357" transform="rotate(-37.2503 93.2903 44.5718)" fill="#004227"/>
<circle cx="101.865" cy="62.283" r="13.2007" transform="rotate(-37.2503 101.865 62.283)" fill="#004227"/>
</svg>
