<svg width="1304" height="487" viewBox="0 0 1304 487" fill="none" xmlns="http://www.w3.org/2000/svg">
<ellipse cx="103.695" cy="170.506" rx="32.3403" ry="31.936" transform="rotate(-24.0723 103.695 170.506)" fill="#BE153E"/>
<circle cx="103.99" cy="221.749" r="31.936" transform="rotate(-24.0723 103.99 221.749)" fill="#BE153E"/>
<circle cx="193.919" cy="284.289" r="31.936" transform="rotate(-24.0723 193.919 284.289)" fill="#BE153E"/>
<circle cx="227.537" cy="260.414" r="31.936" transform="rotate(-24.0723 227.537 260.414)" fill="#BE153E"/>
<circle cx="237.099" cy="281.82" r="31.936" transform="rotate(-24.0723 237.099 281.82)" fill="#BE153E"/>
<circle cx="246.052" cy="242.39" r="31.936" transform="rotate(-24.0723 246.052 242.39)" fill="#BE153E"/>
<circle cx="143.927" cy="152.531" r="31.936" transform="rotate(-24.0723 143.927 152.531)" fill="#BE153E"/>
<circle cx="144.591" cy="203.593" r="31.936" transform="rotate(-24.0723 144.591 203.593)" fill="#BE153E"/>
<ellipse cx="144.585" cy="262.038" rx="32.3403" ry="31.936" transform="rotate(-24.0723 144.585 262.038)" fill="#BE153E"/>
<circle cx="184.529" cy="134.406" r="31.936" transform="rotate(-24.0723 184.529 134.406)" fill="#BE153E"/>
<ellipse cx="184.827" cy="185.624" rx="32.3403" ry="31.936" transform="rotate(-24.0723 184.827 185.624)" fill="#BE153E"/>
<ellipse cx="173.975" cy="239.611" rx="31.936" ry="32.3403" transform="rotate(-24.0723 173.975 239.611)" fill="#BE153E"/>
<circle cx="225.122" cy="116.257" r="31.936" transform="rotate(-24.0723 225.122 116.257)" fill="#BE153E"/>
<circle cx="120.31" cy="112.656" r="31.936" transform="rotate(-24.0723 120.31 112.656)" fill="#004227"/>
<circle cx="225.06" cy="167.648" r="31.936" transform="rotate(-24.0723 225.06 167.648)" fill="#BE153E"/>
<ellipse cx="225.109" cy="216.335" rx="32.3403" ry="31.936" transform="rotate(-24.0723 225.109 216.335)" fill="#BE153E"/>
<circle cx="265.661" cy="149.507" r="31.936" transform="rotate(-24.0723 265.661 149.507)" fill="#BE153E"/>
<circle cx="276.219" cy="196.555" r="32.3403" transform="rotate(-24.0723 276.219 196.555)" fill="#BE153E"/>
<ellipse cx="500.562" cy="169.303" rx="32.3403" ry="31.936" transform="rotate(-24.0723 500.562 169.303)" fill="#BE153E"/>
<circle cx="500.865" cy="220.538" r="31.936" transform="rotate(-24.0723 500.865 220.538)" fill="#BE153E"/>
<circle cx="590.794" cy="283.078" r="31.936" transform="rotate(-24.0723 590.794 283.078)" fill="#BE153E"/>
<circle cx="624.411" cy="259.21" r="31.936" transform="rotate(-24.0723 624.411 259.21)" fill="#BE153E"/>
<circle cx="633.974" cy="280.617" r="31.936" transform="rotate(-24.0723 633.974 280.617)" fill="#BE153E"/>
<circle cx="642.927" cy="241.179" r="31.936" transform="rotate(-24.0723 642.927 241.179)" fill="#BE153E"/>
<circle cx="540.802" cy="151.328" r="31.936" transform="rotate(-24.0723 540.802 151.328)" fill="#BE153E"/>
<circle cx="541.466" cy="202.39" r="31.936" transform="rotate(-24.0723 541.466 202.39)" fill="#BE153E"/>
<ellipse cx="541.46" cy="260.835" rx="32.3403" ry="31.936" transform="rotate(-24.0723 541.46 260.835)" fill="#BE153E"/>
<circle cx="581.396" cy="133.203" r="31.936" transform="rotate(-24.0723 581.396 133.203)" fill="#BE153E"/>
<ellipse cx="581.703" cy="184.413" rx="32.3403" ry="31.936" transform="rotate(-24.0723 581.703 184.413)" fill="#BE153E"/>
<ellipse cx="570.85" cy="238.408" rx="31.936" ry="32.3403" transform="rotate(-24.0723 570.85 238.408)" fill="#BE153E"/>
<circle cx="621.997" cy="115.054" r="31.936" transform="rotate(-24.0723 621.997 115.054)" fill="#BE153E"/>
<circle cx="621.935" cy="166.445" r="31.936" transform="rotate(-24.0723 621.935 166.445)" fill="#BE153E"/>
<ellipse cx="621.984" cy="215.131" rx="32.3403" ry="31.936" transform="rotate(-24.0723 621.984 215.131)" fill="#BE153E"/>
<circle cx="662.536" cy="148.304" r="31.936" transform="rotate(-24.0723 662.536 148.304)" fill="#BE153E"/>
<circle cx="747.719" cy="233.508" r="32.3403" transform="rotate(-24.0723 747.719 233.508)" fill="#BE153E"/>
<ellipse cx="918.562" cy="170.827" rx="32.3403" ry="31.936" transform="rotate(-24.0723 918.562 170.827)" fill="#BE153E"/>
<circle cx="918.865" cy="222.062" r="31.936" transform="rotate(-24.0723 918.865 222.062)" fill="#BE153E"/>
<circle cx="1008.79" cy="284.601" r="31.936" transform="rotate(-24.0723 1008.79 284.601)" fill="#BE153E"/>
<circle cx="1042.41" cy="260.734" r="31.936" transform="rotate(-24.0723 1042.41 260.734)" fill="#BE153E"/>
<circle cx="1051.97" cy="282.14" r="31.936" transform="rotate(-24.0723 1051.97 282.14)" fill="#BE153E"/>
<circle cx="1143.18" cy="397.71" r="31.936" transform="rotate(-24.0723 1143.18 397.71)" fill="#BE153E"/>
<circle cx="958.802" cy="152.851" r="31.936" transform="rotate(-24.0723 958.802 152.851)" fill="#BE153E"/>
<circle cx="959.466" cy="203.913" r="31.936" transform="rotate(-24.0723 959.466 203.913)" fill="#BE153E"/>
<ellipse cx="959.46" cy="262.358" rx="32.3403" ry="31.936" transform="rotate(-24.0723 959.46 262.358)" fill="#BE153E"/>
<circle cx="999.396" cy="134.726" r="31.936" transform="rotate(-24.0723 999.396 134.726)" fill="#BE153E"/>
<ellipse cx="999.703" cy="185.936" rx="32.3403" ry="31.936" transform="rotate(-24.0723 999.703 185.936)" fill="#BE153E"/>
<ellipse cx="988.85" cy="239.931" rx="31.936" ry="32.3403" transform="rotate(-24.0723 988.85 239.931)" fill="#BE153E"/>
<circle cx="1040" cy="116.578" r="31.936" transform="rotate(-24.0723 1040 116.578)" fill="#BE153E"/>
<circle cx="1039.93" cy="167.968" r="31.936" transform="rotate(-24.0723 1039.93 167.968)" fill="#BE153E"/>
<ellipse cx="1039.98" cy="216.655" rx="32.3403" ry="31.936" transform="rotate(-24.0723 1039.98 216.655)" fill="#BE153E"/>
<circle cx="1127.18" cy="173.71" r="31.936" transform="rotate(-24.0723 1127.18 173.71)" fill="#BE153E"/>
<circle cx="1165.72" cy="235.032" r="32.3403" transform="rotate(-24.0723 1165.72 235.032)" fill="#BE153E"/>
</svg>
