<svg width="506" height="506" viewBox="0 0 506 506" fill="none" xmlns="http://www.w3.org/2000/svg">
<ellipse cx="112.651" cy="182.418" rx="21.1346" ry="20.8704" transform="rotate(-29.0078 112.651 182.418)" fill="#BE153E"/>
<circle cx="115.724" cy="215.757" r="20.8704" transform="rotate(-29.0078 115.724 215.757)" fill="#BE153E"/>
<circle cx="177.787" cy="251.421" r="20.8704" transform="rotate(-29.0078 177.787 251.421)" fill="#BE153E"/>
<circle cx="198.334" cy="233.991" r="20.8704" transform="rotate(-29.0078 198.334 233.991)" fill="#BE153E"/>
<circle cx="205.764" cy="247.389" r="20.8704" transform="rotate(-29.0078 205.764 247.389)" fill="#BE153E"/>
<circle cx="137.834" cy="168.46" r="20.8704" transform="rotate(-29.0078 137.834 168.46)" fill="#BE153E"/>
<circle cx="141.139" cy="201.663" r="20.8704" transform="rotate(-29.0078 141.139 201.663)" fill="#BE153E"/>
<ellipse cx="144.416" cy="239.714" rx="21.1346" ry="20.8704" transform="rotate(-29.0078 144.416 239.714)" fill="#BE153E"/>
<circle cx="163.248" cy="154.366" r="20.8704" transform="rotate(-29.0078 163.248 154.366)" fill="#BE153E"/>
<ellipse cx="166.323" cy="187.699" rx="21.1346" ry="20.8704" transform="rotate(-29.0078 166.323 187.699)" fill="#BE153E"/>
<ellipse cx="162.29" cy="223.464" rx="20.8704" ry="21.1346" transform="rotate(-29.0078 162.29 223.464)" fill="#BE153E"/>
<circle cx="188.662" cy="140.272" r="20.8704" transform="rotate(-29.0078 188.662 140.272)" fill="#BE153E"/>
<circle cx="191.506" cy="173.733" r="20.8704" transform="rotate(-29.0078 191.506 173.733)" fill="#BE153E"/>
<ellipse cx="100.666" cy="322.222" rx="21.1346" ry="20.8704" transform="rotate(-29.0078 100.666 322.222)" fill="#BE153E"/>
<circle cx="216.92" cy="159.639" r="20.8704" transform="rotate(-29.0078 216.92 159.639)" fill="#BE153E"/>
<circle cx="308.795" cy="287.445" r="21.1346" transform="rotate(-29.0078 308.795 287.445)" fill="#BE153E"/>
<circle cx="348.795" cy="132.445" r="21.1346" transform="rotate(-29.0078 348.795 132.445)" fill="#BE153E"/>
<circle cx="443.795" cy="267.445" r="21.1346" transform="rotate(-29.0078 443.795 267.445)" fill="#BE153E"/>
</svg>
