<svg width="152" height="163" viewBox="0 0 152 163" fill="none" xmlns="http://www.w3.org/2000/svg">
<ellipse cx="45.5805" cy="32.9871" rx="19.692" ry="19.4458" transform="rotate(18.5042 45.5805 32.9871)" fill="#BE153E"/>
<ellipse cx="97.8461" cy="24.6902" rx="19.692" ry="19.4458" transform="rotate(18.5042 97.8461 24.6902)" fill="#004227"/>
<circle cx="24.6127" cy="56.0848" r="19.4458" transform="rotate(18.5042 24.6127 56.0848)" fill="#BE153E"/>
<circle cx="39.1595" cy="121.167" r="19.4458" transform="rotate(18.5042 39.1595 121.167)" fill="#BE153E"/>
<circle cx="64.0736" cy="124.315" r="19.4458" transform="rotate(18.5042 64.0736 124.315)" fill="#BE153E"/>
<circle cx="59.5345" cy="137.85" r="19.4458" transform="rotate(18.5042 59.5345 137.85)" fill="#BE153E"/>
<circle cx="79.7924" cy="123.866" r="19.4458" transform="rotate(18.5042 79.7924 123.866)" fill="#BE153E"/>
<circle cx="71.0267" cy="41.5066" r="19.4458" transform="rotate(18.5042 71.0267 41.5066)" fill="#BE153E"/>
<circle cx="50.2767" cy="64.6746" r="19.4458" transform="rotate(18.5042 50.2767 64.6746)" fill="#BE153E"/>
<ellipse cx="26.2055" cy="90.8777" rx="19.692" ry="19.4458" transform="rotate(18.5042 26.2055 90.8777)" fill="#BE153E"/>
<circle cx="96.6986" cy="50.0926" r="19.4458" transform="rotate(18.5042 96.6986 50.0926)" fill="#BE153E"/>
<ellipse cx="75.7367" cy="73.1902" rx="19.692" ry="19.4458" transform="rotate(18.5042 75.7367 73.1902)" fill="#BE153E"/>
<ellipse cx="48.6127" cy="92.9315" rx="19.4458" ry="19.692" transform="rotate(18.5042 48.6127 92.9315)" fill="#BE153E"/>
<circle cx="122.378" cy="58.6902" r="19.4458" transform="rotate(18.5042 122.378 58.6902)" fill="#BE153E"/>
<circle cx="101.175" cy="81.7019" r="19.4458" transform="rotate(18.5042 101.175 81.7019)" fill="#BE153E"/>
<ellipse cx="81.1351" cy="103.554" rx="19.692" ry="19.4458" transform="rotate(18.5042 81.1351 103.554)" fill="#BE153E"/>
<circle cx="126.847" cy="90.2957" r="19.4458" transform="rotate(18.5042 126.847 90.2957)" fill="#BE153E"/>
<circle cx="112.205" cy="115.74" r="19.692" transform="rotate(18.5042 112.205 115.74)" fill="#BE153E"/>
</svg>
